<?xml version="1.0" encoding="utf-8"?>
<!-- Generator: Adobe Illustrator 25.2.3, SVG Export Plug-In . SVG Version: 6.00 Build 0)  -->
<svg version="1.1" id="Layer_1" xmlns="http://www.w3.org/2000/svg" xmlns:xlink="http://www.w3.org/1999/xlink" x="0px" y="0px"
	 viewBox="0 0 100 100" style="enable-background:new 0 0 100 100;" xml:space="preserve">
<style type="text/css">
	.st0{fill:none;stroke:#000000;stroke-width:2.5;stroke-linecap:round;stroke-linejoin:round;stroke-miterlimit:10;}
</style>
<g>
	<path d="M58.5,80v2.9c0,4.5-3.6,8.1-8.1,8.1c-0.5,0-1,0-1.4-0.1c-1.2-0.2-2.2-0.6-3.2-1.3c-2.1-1.5-3.5-3.9-3.5-6.7V80H58.5z"/>
	<rect x="39.8" y="72" width="21.2" height="8.8"/>
	<line class="st0" x1="50.4" y1="11" x2="50.4" y2="20.1"/>
	<line class="st0" x1="26.9" y1="19.6" x2="32.8" y2="26.6"/>
	<line class="st0" x1="73.1" y1="19.6" x2="67.2" y2="26.6"/>
	<path d="M50.4,28c-2.6,0-5.1,0.5-7.5,1.4c-7.5,3-12.9,10.3-12.9,18.9c0,8,4.6,14.8,11.2,18.2c1,0.5,2,3.1,3,6.4h12
		c1-3.2,2-5.8,2.9-6.2c6.8-3.3,11.5-10.3,11.5-18.3C70.8,37.1,61.7,28,50.4,28z M51.7,55.8V72h-2.5V55.8c-1.7-0.5-3-2.1-3-4
		c0-2.3,1.9-4.2,4.2-4.2s4.2,1.9,4.2,4.2C54.6,53.7,53.4,55.3,51.7,55.8z"/>
</g>
</svg>
