<?xml version="1.0" encoding="utf-8"?>
<!-- Generator: Adobe Illustrator 25.2.3, SVG Export Plug-In . SVG Version: 6.00 Build 0)  -->
<svg version="1.1" id="Layer_1" xmlns="http://www.w3.org/2000/svg" xmlns:xlink="http://www.w3.org/1999/xlink" x="0px" y="0px"
	 viewBox="0 0 100 100" style="enable-background:new 0 0 100 100;" xml:space="preserve">
<style type="text/css">
	.st0{fill:none;stroke:#000000;stroke-width:2.5;stroke-linecap:round;stroke-linejoin:round;stroke-miterlimit:10;}
</style>
<path class="st0" d="M44.3,73c-1.1-3.3-2.1-6-3-6.5c-6.7-3.3-11.2-10.2-11.2-18.2c0-8.6,5.3-16,12.9-18.9c2.3-0.9,4.8-1.4,7.5-1.4
	c11.2,0,20.3,9.1,20.3,20.3c0,8.1-4.7,15-11.5,18.3c-0.9,0.5-1.9,3.1-2.9,6.2"/>
<path class="st0" d="M58.5,80v2.9c0,4.5-3.6,8.1-8.1,8.1c-0.5,0-1,0-1.4-0.1c-1.2-0.2-2.2-0.6-3.2-1.3c-2.1-1.5-3.5-3.9-3.5-6.7V80"
	/>
<circle class="st0" cx="50.4" cy="51.8" r="4.2"/>
<rect x="41.3" y="72.9" class="st0" width="18.2" height="7"/>
<line class="st0" x1="50.4" y1="56" x2="50.4" y2="73"/>
<line class="st0" x1="50.4" y1="11" x2="50.4" y2="20.1"/>
<line class="st0" x1="26.9" y1="19.6" x2="32.8" y2="26.6"/>
<line class="st0" x1="73.1" y1="19.6" x2="67.2" y2="26.6"/>
</svg>
