<?xml version="1.0" encoding="utf-8"?>
<!-- Generator: Adobe Illustrator 25.2.3, SVG Export Plug-In . SVG Version: 6.00 Build 0)  -->
<svg version="1.1" id="Layer_1" xmlns="http://www.w3.org/2000/svg" xmlns:xlink="http://www.w3.org/1999/xlink" x="0px" y="0px"
	 viewBox="0 0 100 100" style="enable-background:new 0 0 100 100;" xml:space="preserve">
<style type="text/css">
	.st0{fill:#DCE5EA;}
	.st1{fill:#EAF0F4;}
	.st2{fill:#FF7D43;}
	.st3{fill:#FFC871;}
	.st4{fill:#9C9C9C;}
	.st5{fill:#B2B2B2;}
	.st6{fill:#FFB450;}
	.st7{fill:#E2E2E2;}
	.st8{fill:#FFC69C;}
</style>
<g>
	<g>
		<path class="st0" d="M85.9,35.9v20.2c0,8.7-6.6,15.9-15.1,16.8C70.2,73,69.6,73,69,73H25.9C16.6,73,9,65.4,9,56.1V35.9
			c0-3.7,1.2-7,3.1-9.8c3.1-4.3,8.1-7.1,13.8-7.1H69C78.3,19,85.9,26.6,85.9,35.9z"/>
	</g>
	<g>
		<path class="st1" d="M76.9,35.9v20.2c0,8.7-6.6,15.9-15.1,16.8C61.2,73,60.6,73,60,73H25.9C16.6,73,9,65.4,9,56.1V35.9
			c0-3.7,1.2-7,3.1-9.8c3.1-4.3,8.1-7.1,13.8-7.1H60C69.3,19,76.9,26.6,76.9,35.9z"/>
	</g>
	<g>
		<polygon class="st1" points="22.8,71 19,81 37.1,71 		"/>
	</g>
	<g>
		<g>
			<g>
				<g>
					<path class="st2" d="M88.6,55.1c0,4.8-2.8,9-6.9,11c-0.6,0.3-1.3,2.3-2,4.7c-0.3,1-0.6,2.2-1,3.2c-0.7,2.4-1.5,4.3-2.3,4.3
						c-0.7,0-1.3-1.4-2-3.2c-0.5-1.3-0.9-2.9-1.4-4.3c-0.1-0.3-0.2-0.6-0.3-0.8c-0.6-2-1.2-3.6-1.8-3.9c-4-2-6.7-6.1-6.7-10.9
						c0-5.2,3.2-9.6,7.7-11.3c1.4-0.5,2.9-0.8,4.5-0.8C83.1,42.9,88.6,48.4,88.6,55.1z"/>
				</g>
				<g>
					<path class="st3" d="M84.4,56c0,4.8-2.8,9-6.9,11c-1,0.5-2,4.8-3.1,8.2c-1.2-3.4-2.4-8.5-3.5-9.1c-4-2-6.7-6.1-6.7-10.9
						c0-5.2,3.2-9.6,7.7-11.3c0.1,0,0.2,0,0.3,0C78.9,43.8,84.4,49.2,84.4,56z"/>
				</g>
			</g>
			<g>
				<path class="st4" d="M81.3,70.8v5.1c0,2.7-2.2,4.8-4.8,4.8c-0.3,0-0.6,0-0.8-0.1c-0.7-0.1-1.3-0.4-1.9-0.8
					c-1.3-0.9-2.1-2.3-2.1-4v-5.1H81.3z"/>
			</g>
			<g>
				<path class="st5" d="M79.6,70.8v5.1c0,2.4-1.7,4.4-4,4.8c-0.7-0.1-1.3-0.4-1.9-0.8c-1.3-0.9-2.1-2.3-2.1-4v-5.1H79.6z"/>
			</g>
			<circle class="st6" cx="76.4" cy="57.2" r="2.5"/>
			<rect x="76" y="58.9" class="st6" width="0.8" height="12.6"/>
			<rect x="70.9" y="69.9" class="st7" width="10.9" height="4.2"/>
		</g>
		<g>
			<rect x="76.3" y="32" class="st8" width="0.8" height="6.7"/>
		</g>
		<g>
			
				<rect x="63.7" y="35.8" transform="matrix(0.8192 -0.5736 0.5736 0.8192 -10.8687 43.8464)" class="st8" width="0.8" height="6.7"/>
		</g>
		<g>
			<rect x="85.4" y="38.7" transform="matrix(0.5736 -0.8192 0.8192 0.5736 5.7577 89.378)" class="st8" width="6.7" height="0.8"/>
		</g>
	</g>
</g>
</svg>
