<svg xmlns="http://www.w3.org/2000/svg" width="64.1" height="70.3" viewBox="0 0 64.1 70.3">
  <g id="_6405447_smartphone_verification_mobile_phone_icon" data-name="6405447_smartphone_verification_mobile_phone_icon" transform="translate(3.2 3.1)">
    <path id="패스_83154" data-name="패스 83154" d="M19.5-2.4H57A3.116,3.116,0,0,1,60.1.7V63.2A3.116,3.116,0,0,1,57,66.3H19.5a3.116,3.116,0,0,1-3.1-3.1V.8A3.138,3.138,0,0,1,19.5-2.4Z" fill="#fff"/>
    <path id="패스_83155" data-name="패스 83155" d="M57,67.2H19.5a3.842,3.842,0,0,1-3.9-3.9V.8a3.842,3.842,0,0,1,3.9-3.9H57A3.842,3.842,0,0,1,60.9.8V63.3A3.9,3.9,0,0,1,57,67.2ZM19.5-1.6A2.263,2.263,0,0,0,17.2.7V63.2a2.263,2.263,0,0,0,2.3,2.3H57a2.263,2.263,0,0,0,2.3-2.3V.8A2.263,2.263,0,0,0,57-1.5H19.5Z" fill="#231f20"/>
    <path id="패스_83156" data-name="패스 83156" d="M44.5,1.5H32a.789.789,0,0,1-.8-.8A.709.709,0,0,1,32,0H44.5a.789.789,0,0,1,.8.8A.709.709,0,0,1,44.5,1.5Z" fill="#231f20"/>
    <path id="패스_83157" data-name="패스 83157" d="M41.4,64H35.2a.789.789,0,0,1-.8-.8.736.736,0,0,1,.8-.8h6.2a.8.8,0,0,1,0,1.6Z" fill="#231f20"/>
    <path id="패스_83159" data-name="패스 83159" d="M.8,16.4H41.4a3.116,3.116,0,0,1,3.1,3.1V41.4a3.116,3.116,0,0,1-3.1,3.1H.8a3.116,3.116,0,0,1-3.1-3.1V19.5A2.993,2.993,0,0,1,.8,16.4Z" fill="#fff"/>
    <path id="패스_83160" data-name="패스 83160" d="M41.4,45.3H.8a3.842,3.842,0,0,1-3.9-3.9V19.5A3.842,3.842,0,0,1,.8,15.6H41.4a3.842,3.842,0,0,1,3.9,3.9V41.4A3.971,3.971,0,0,1,41.4,45.3ZM.8,17.2a2.263,2.263,0,0,0-2.3,2.3V41.4A2.263,2.263,0,0,0,.8,43.7H41.4a2.263,2.263,0,0,0,2.3-2.3V19.5a2.263,2.263,0,0,0-2.3-2.3Z" fill="#231f20"/>
    <circle id="타원_9365" data-name="타원 9365" cx="7.8" cy="7.8" r="7.8" transform="translate(25.8 35.1)" fill="#fff"/>
    <path id="패스_83161" data-name="패스 83161" d="M32,48.4a.789.789,0,0,1-.8-.8V40.1l-1.8,1.8a.778.778,0,0,1-1.1-1.1l3.1-3.1a.785.785,0,0,1,1.1,0,.845.845,0,0,1,.2.6v9.4C32.8,48.1,32.4,48.4,32,48.4Z" fill="#231f20"/>
    <path id="패스_83162" data-name="패스 83162" d="M35.1,48.4a.789.789,0,0,1-.8-.8V38.2a.789.789,0,0,1,.8-.8.736.736,0,0,1,.8.8v7.5l1.8-1.8A.778.778,0,1,1,38.8,45l-3.1,3.1A.864.864,0,0,1,35.1,48.4Z" fill="#231f20"/>
    <path id="패스_83163" data-name="패스 83163" d="M33.6,51.5a8.6,8.6,0,1,1,8.6-8.6A8.6,8.6,0,0,1,33.6,51.5Zm0-15.6a7,7,0,1,0,7,7A7.086,7.086,0,0,0,33.6,35.9Z" fill="#231f20"/>
    <path id="패스_83164" data-name="패스 83164" d="M38.2,23.4H-2.4a.789.789,0,0,1-.8-.8.736.736,0,0,1,.8-.8H38.2a.789.789,0,0,1,.8.8A.736.736,0,0,1,38.2,23.4Z" fill="#231f20"/>
    <path id="패스_83165" data-name="패스 83165" d="M10.1,32.8a3.842,3.842,0,0,1-3.9-3.9,3.9,3.9,0,1,1,3.9,3.9Zm0-6.3a2.3,2.3,0,1,0,2.3,2.3A2.263,2.263,0,0,0,10.1,26.5Z" fill="#231f20"/>
    <path id="패스_83166" data-name="패스 83166" d="M16.4,42.2H3.9a.789.789,0,0,1-.8-.8V40.2a7,7,0,0,1,14,0v1.2A.709.709,0,0,1,16.4,42.2ZM4.7,40.6H15.6v-.5a5.484,5.484,0,0,0-5.5-5.5,5.422,5.422,0,0,0-5.5,5.5v.5Z" fill="#231f20"/>
    <path id="패스_83168" data-name="패스 83168" d="M25.8,35.9H19.6a.789.789,0,0,1-.8-.8.736.736,0,0,1,.8-.8h6.2a.8.8,0,0,1,0,1.6Z" fill="#231f20"/>
    <path id="패스_83169" data-name="패스 83169" d="M53.9,60.9H22.6A3.842,3.842,0,0,1,18.7,57V47.6a.789.789,0,0,1,.8-.8.736.736,0,0,1,.8.8V57a2.263,2.263,0,0,0,2.3,2.3H53.8A2.263,2.263,0,0,0,56.1,57V7a2.263,2.263,0,0,0-2.3-2.3H22.6A2.263,2.263,0,0,0,20.3,7v6.2a.789.789,0,0,1-.8.8.736.736,0,0,1-.8-.8V7a3.842,3.842,0,0,1,3.9-3.9H53.8A3.842,3.842,0,0,1,57.7,7V57A3.76,3.76,0,0,1,53.9,60.9Z" fill="#231f20"/>
  </g>
</svg>
