<svg xmlns="http://www.w3.org/2000/svg" width="26.497" height="24" viewBox="0 0 26.497 24">
  <path id="디지털원패스" d="M2.145,2.159h4.3V0H0V6.462H2.145Zm0,15.379H0V24H6.462V21.841H2.145Zm12.078,3.626a1.129,1.129,0,0,0-1.256,1,4.429,4.429,0,0,1-.663,1.623c-.042.071-.1.141-.141.212h2.6a5.841,5.841,0,0,0,.466-1.58A1.139,1.139,0,0,0,14.222,21.164Zm-1.947-5.728a5.956,5.956,0,0,1,1.5-4.063,1.132,1.132,0,0,0-1.735-1.453h0A8.269,8.269,0,0,0,10,15.436c0,1.566.31,2.892.31,3.838a2.242,2.242,0,0,1-.339,1.354,3.491,3.491,0,0,1-1.707,1.157,1.135,1.135,0,0,0-.635,1.467,1.147,1.147,0,0,0,1.058.72,1.132,1.132,0,0,0,.423-.085A5.726,5.726,0,0,0,11.866,21.9a4.539,4.539,0,0,0,.734-2.624C12.571,17.933,12.261,16.677,12.275,15.436Zm5.446-7.873a7.27,7.27,0,0,0-1.947.268,1.135,1.135,0,1,0,.607,2.187,5.021,5.021,0,0,1,1.34-.183c1.693-.014,3.372.945,5.051,2.328,1.27,1.044,2.483,2.286,3.725,3.4v-3.09c-.72-.677-1.481-1.4-2.272-2.06C22.392,8.917,20.275,7.577,17.721,7.563Zm8.762-.339V0H20.021V2.159h4.3V5.644A13.168,13.168,0,0,0,17.566,3.7a11.231,11.231,0,0,0-6.533,2.074A11.6,11.6,0,0,0,6.039,15.9a22.67,22.67,0,0,0,.268,3.386,1.133,1.133,0,1,0,2.243-.325,20.975,20.975,0,0,1-.24-3.076c.028-3.259.889-6.011,4.035-8.268A8.989,8.989,0,0,1,17.58,5.954a11.276,11.276,0,0,1,7.351,2.921c.508.437,1.016.875,1.552,1.312V7.224Zm-6.392,9.665a1.136,1.136,0,1,0-1.792,1.4,42.511,42.511,0,0,0,3.781,4.106c.607.564,1.242,1.115,1.891,1.608h2.5V22.956c-.127-.071-.254-.141-.381-.226A31.583,31.583,0,0,1,20.092,16.889ZM22.6,14.194a12.717,12.717,0,0,0-2.709-2.159,5.141,5.141,0,0,0-2.06-.48,3.562,3.562,0,0,0-2.963,1.538,5.417,5.417,0,0,0-.917,3.146,7.417,7.417,0,0,0,.24,1.82A16.146,16.146,0,0,0,17.9,23.986h3.2c-.1-.1-.2-.183-.31-.282-2.342-2.173-4.078-4.882-4.416-6.236a4.677,4.677,0,0,1-.169-1.228,3.221,3.221,0,0,1,.494-1.834,1.3,1.3,0,0,1,1.115-.593,2.883,2.883,0,0,1,1.143.282,12.511,12.511,0,0,1,2.074,1.735c1.016.959,2.215,2.159,3.443,3.287.691.635,1.383,1.185,2,1.693V17.877c-.155-.141-.31-.268-.451-.409C24.832,16.367,23.647,15.182,22.6,14.194Z" fill="#0f206c"/>
</svg>
