<svg xmlns="http://www.w3.org/2000/svg" xmlns:xlink="http://www.w3.org/1999/xlink" width="128" height="98" viewBox="0 0 128 98">
  <defs>
    <filter id="패스_83249" x="0" y="10.3" width="128" height="87.7" filterUnits="userSpaceOnUse">
      <feOffset dy="1" input="SourceAlpha"/>
      <feGaussianBlur stdDeviation="3" result="blur"/>
      <feFlood flood-opacity="0.161"/>
      <feComposite operator="in" in2="blur"/>
      <feComposite in="SourceGraphic"/>
    </filter>
  </defs>
  <g id="Files_Folder29" transform="translate(9)">
    <g id="그룹_162517" data-name="그룹 162517">
      <g id="패스_83248" data-name="패스 83248" fill="#b8b8b8">
        <path d="M58.7,22A3.757,3.757,0,0,1,55,25.7H3.7A3.757,3.757,0,0,1,0,22V3.7A3.691,3.691,0,0,1,3.7,0H44a3.821,3.821,0,0,1,3.2,1.8L57.9,19.6A3.85,3.85,0,0,1,58.7,22Z" stroke="none"/>
        <path d="M 55 24.70000076293945 C 56.43832015991211 24.70000076293945 57.70000076293945 23.43832015991211 57.70000076293945 22 C 57.70000076293945 21.3351001739502 57.48226928710938 20.66077041625977 57.13177871704102 20.24018096923828 L 57.08255004882812 20.18111038208008 L 46.34997940063477 2.326925039291382 C 45.81663513183594 1.49580454826355 44.93902206420898 1.000000357627869 44 1.000000357627869 L 3.700000286102295 1.000000357627869 C 2.211210489273071 1.000000357627869 1.000000357627869 2.211210489273071 1.000000357627869 3.700000286102295 L 1.000000357627869 22 C 1.000000357627869 23.43832015991211 2.261680364608765 24.70000076293945 3.700000286102295 24.70000076293945 L 55 24.70000076293945 M 55 25.70000076293945 C 55 25.70000076293945 55 25.70000076293945 54.90000152587891 25.70000076293945 L 3.700000286102295 25.70000076293945 C 1.700000405311584 25.70000076293945 3.814697322468419e-07 24 3.814697322468419e-07 22 L 3.814697322468419e-07 3.700000286102295 C 3.814697322468419e-07 1.600000381469727 1.700000405311584 3.814697322468419e-07 3.700000286102295 3.814697322468419e-07 L 44 3.814697322468419e-07 C 45.29999923706055 3.814697322468419e-07 46.5 0.7000004053115845 47.20000076293945 1.800000429153442 L 57.90000152587891 19.60000038146973 C 58.40000152587891 20.20000076293945 58.70000076293945 21.10000038146973 58.70000076293945 22 C 58.70000076293945 24 57 25.70000076293945 55 25.70000076293945 Z" stroke="none" fill="rgba(124,124,124,0.53)"/>
      </g>
    </g>
    <g id="그룹_162518" data-name="그룹 162518">
      <g transform="matrix(1, 0, 0, 1, -9, 0)" filter="url(#패스_83249)">
        <g id="패스_83249-2" data-name="패스 83249" transform="translate(9)" fill="#b8b8b8">
          <path d="M110,22V84.3a3.757,3.757,0,0,1-3.7,3.7H3.7A3.757,3.757,0,0,1,0,84.3v-66H106.3A3.757,3.757,0,0,1,110,22Z" stroke="none"/>
          <path d="M 1 19.30000305175781 L 1 84.30000305175781 C 1 85.73831176757812 2.261688232421875 87 3.699996948242188 87 L 106.3000030517578 87 C 107.7383117675781 87 109 85.73831176757812 109 84.30000305175781 L 109 22 C 109 20.56168365478516 107.7383117675781 19.30000305175781 106.3000030517578 19.30000305175781 L 1 19.30000305175781 M 0 18.30000305175781 L 106.3000030517578 18.30000305175781 C 108.3000030517578 18.30000305175781 110 20 110 22 L 110 84.30000305175781 C 110 86.30000305175781 108.3000030517578 88 106.3000030517578 88 L 3.699996948242188 88 C 1.699996948242188 88 0 86.30000305175781 0 84.30000305175781 L 0 18.30000305175781 Z" stroke="none" fill="rgba(124,124,124,0.53)"/>
        </g>
      </g>
    </g>
  </g>
</svg>
