<svg xmlns="http://www.w3.org/2000/svg" xmlns:xlink="http://www.w3.org/1999/xlink" width="128" height="100" viewBox="0 0 128 100">
  <defs>
    <filter id="패스_83249" x="0" y="12.3" width="128" height="87.7" filterUnits="userSpaceOnUse">
      <feOffset dy="3" input="SourceAlpha"/>
      <feGaussianBlur stdDeviation="3" result="blur"/>
      <feFlood flood-opacity="0.161"/>
      <feComposite operator="in" in2="blur"/>
      <feComposite in="SourceGraphic"/>
    </filter>
  </defs>
  <g id="그룹_162525" data-name="그룹 162525" transform="translate(9)">
    <g id="그룹_162517" data-name="그룹 162517">
      <g id="패스_83248" data-name="패스 83248" fill="#ffba4f">
        <path d="M 55 25.20000076293945 L 54.90000152587891 25.20000076293945 L 3.700000286102295 25.20000076293945 C 2.866270303726196 25.20000076293945 2.068460464477539 24.86135101318359 1.453550338745117 24.24645042419434 C 0.8386504054069519 23.63154029846191 0.5000003576278687 22.83373069763184 0.5000003576278687 22 L 0.5000003576278687 3.700000286102295 C 0.5000003576278687 2.8307204246521 0.8374703526496887 2.020760297775269 1.450230360031128 1.419340372085571 C 2.054270267486572 0.8265003561973572 2.85325026512146 0.5000003576278687 3.700000286102295 0.5000003576278687 L 44 0.5000003576278687 C 45.11271667480469 0.5000003576278687 46.14963531494141 1.084321260452271 46.77495956420898 2.063401699066162 L 57.47146987915039 19.85760116577148 L 57.49127960205078 19.89056015014648 L 57.51589202880859 19.92008972167969 C 57.93785858154297 20.42646026611328 58.20000076293945 21.22344017028809 58.20000076293945 22 C 58.20000076293945 22.83373069763184 57.86135101318359 23.63154029846191 57.2464485168457 24.24645042419434 C 56.63154220581055 24.86135101318359 55.8337287902832 25.20000076293945 55 25.20000076293945 Z" stroke="none"/>
        <path d="M 55 24.70000076293945 C 56.43832015991211 24.70000076293945 57.70000076293945 23.43832015991211 57.70000076293945 22 C 57.70000076293945 21.3351001739502 57.48226928710938 20.66077041625977 57.13177871704102 20.24018096923828 L 57.08255004882812 20.18111038208008 L 46.34997940063477 2.326925039291382 C 45.81663513183594 1.49580454826355 44.93902206420898 1.000000357627869 44 1.000000357627869 L 3.700000286102295 1.000000357627869 C 2.211210489273071 1.000000357627869 1.000000357627869 2.211210489273071 1.000000357627869 3.700000286102295 L 1.000000357627869 22 C 1.000000357627869 23.43832015991211 2.261680364608765 24.70000076293945 3.700000286102295 24.70000076293945 L 55 24.70000076293945 M 55 25.70000076293945 C 55 25.70000076293945 55 25.70000076293945 54.90000152587891 25.70000076293945 L 3.700000286102295 25.70000076293945 C 1.700000405311584 25.70000076293945 3.814697322468419e-07 24 3.814697322468419e-07 22 L 3.814697322468419e-07 3.700000286102295 C 3.814697322468419e-07 1.600000381469727 1.700000405311584 3.814697322468419e-07 3.700000286102295 3.814697322468419e-07 L 44 3.814697322468419e-07 C 45.29999923706055 3.814697322468419e-07 46.5 0.7000004053115845 47.20000076293945 1.800000429153442 L 57.90000152587891 19.60000038146973 C 58.40000152587891 20.20000076293945 58.70000076293945 21.10000038146973 58.70000076293945 22 C 58.70000076293945 24 57 25.70000076293945 55 25.70000076293945 Z" stroke="none" fill="#f89d47"/>
      </g>
    </g>
    <g id="그룹_162518" data-name="그룹 162518">
      <g transform="matrix(1, 0, 0, 1, -9, 0)" filter="url(#패스_83249)">
        <g id="패스_83249-2" data-name="패스 83249" transform="translate(9)" fill="#ffba4f">
          <path d="M 106.3000030517578 87.5 L 3.700000047683716 87.5 C 2.866271495819092 87.5 2.068457126617432 87.16136169433594 1.453557133674622 86.54644775390625 C 0.8386428356170654 85.93154144287109 0.5 85.13372802734375 0.5 84.30000305175781 L 0.5 18.80000114440918 L 106.3000030517578 18.80000114440918 C 107.1337280273438 18.80000114440918 107.9315414428711 19.13864517211914 108.5464401245117 19.75355911254883 C 109.1613540649414 20.36845779418945 109.5 21.16627311706543 109.5 22.00000190734863 L 109.5 84.30000305175781 C 109.5 85.13372802734375 109.1613540649414 85.93154144287109 108.5464401245117 86.54644775390625 C 107.9315414428711 87.16136169433594 107.1337280273438 87.5 106.3000030517578 87.5 Z" stroke="none"/>
          <path d="M 1 19.30000305175781 L 1 84.30000305175781 C 1 85.73831176757812 2.261688232421875 87 3.699996948242188 87 L 106.3000030517578 87 C 107.7383117675781 87 109 85.73831176757812 109 84.30000305175781 L 109 22 C 109 20.56168365478516 107.7383117675781 19.30000305175781 106.3000030517578 19.30000305175781 L 1 19.30000305175781 M 0 18.30000305175781 L 106.3000030517578 18.30000305175781 C 108.3000030517578 18.30000305175781 110 20 110 22 L 110 84.30000305175781 C 110 86.30000305175781 108.3000030517578 88 106.3000030517578 88 L 3.699996948242188 88 C 1.699996948242188 88 0 86.30000305175781 0 84.30000305175781 L 0 18.30000305175781 Z" stroke="none" fill="#f89d47"/>
        </g>
      </g>
    </g>
  </g>
</svg>
