<?xml version="1.0" encoding="utf-8"?>
<!-- Generator: Adobe Illustrator 26.5.0, SVG Export Plug-In . SVG Version: 6.00 Build 0)  -->
<svg version="1.1" xmlns="http://www.w3.org/2000/svg" xmlns:xlink="http://www.w3.org/1999/xlink" x="0px" y="0px"
	 viewBox="0 0 128 128" style="enable-background:new 0 0 128 128;" xml:space="preserve">
<style type="text/css">
	.st0{fill:#FFFFFF;}
</style>
<g id="레이어_2">
</g>
<g id="Layer_1">
	<g>
		<path class="st0" d="M89.4,65.5L62.5,38.6L4,97.1V124h26.9L89.4,65.5z"/>
		<rect x="58" y="116" class="st0" width="44" height="8"/>
		<rect x="112" y="116" class="st0" width="8" height="8"/>
		<path class="st0" d="M69.6,31.6l26.9,26.9L114.8,40L88,13.2L69.6,31.6z"/>
	</g>
</g>
<g id="Layer_1_사본">
	<g>
		<path d="M89.4,65.5L62.5,38.6L4,97.1V124h26.9L89.4,65.5z M12,116v-15.6l50.5-50.5l15.6,15.6L27.6,116H12z"/>
		<rect x="58" y="116" width="44" height="8"/>
		<rect x="112" y="116" width="8" height="8"/>
		<path d="M69.6,31.6l26.9,26.9L114.8,40L88,13.2L69.6,31.6z M96.4,47.1L80.9,31.6l7.1-7.1L103.5,40L96.4,47.1z"/>
	</g>
</g>
</svg>
