<?xml version="1.0" encoding="utf-8"?>
<!-- Generator: Adobe Illustrator 25.2.3, SVG Export Plug-In . SVG Version: 6.00 Build 0)  -->
<svg version="1.1" id="Decorative_icon" xmlns="http://www.w3.org/2000/svg" xmlns:xlink="http://www.w3.org/1999/xlink" x="0px"
	 y="0px" viewBox="0 0 45 45" style="enable-background:new 0 0 45 45;" xml:space="preserve">
<style type="text/css">
	.st0{opacity:0;}
	.st1{fill:#444444;}
	.st2{fill:none;}
	.st3{fill:none;stroke:#B9B9B9;}
</style>
<g id="Placement_Area" class="st0">
	<rect x="6.8" y="6.3" class="st1" width="31.2" height="32.1"/>
	<rect x="7.2" y="6.8" class="st2" width="30.3" height="31.2"/>
</g>
<g id="Icon">
	<g id="Canvas" class="st0">
		<rect x="7.9" y="10" class="st1" width="29" height="29.8"/>
		<rect x="8.3" y="10.4" class="st3" width="28.1" height="29"/>
	</g>
	<ellipse id="타원_26" class="st1" cx="22.4" cy="15.9" rx="13" ry="4.3"/>
	<path id="패스_504" class="st1" d="M35.5,33.5v-6.6c-0.2,0.3-0.4,0.5-0.7,0.7c0.2,1.8-0.2,3.6-1.3,5.2L35.5,33.5z"/>
	<path id="패스_505" class="st1" d="M24.4,32.7c-0.5-0.8-0.8-1.6-1.1-2.5c-0.3,0-0.6,0-0.8,0c-4,0-11.5-1-13-3.3v7.3
		c0,1.9,4,3.5,9.4,4C19.4,35.4,21.6,33.2,24.4,32.7z"/>
	<path id="패스_506" class="st1" d="M23.1,28.3L23.1,28.3c0-4,2.4-6.7,5.9-6.7c2.6-0.1,4.9,1.7,5.5,4.2c0.6-0.4,0.9-0.9,1-1.6
		v-5.6c-2,2.6-9,3.3-13,3.3s-11.5-1-13-3.3v5.6c0,2.3,5.8,4.2,13,4.2C22.7,28.3,22.9,28.3,23.1,28.3z"/>
	<path id="패스_507" class="st1" d="M31.2,33.8v-1.2c0-0.2,0.1-0.4,0.2-0.5c0.9-1.1,1.3-2.4,1.4-3.8c0-2.9-1.5-4.5-3.8-4.5
		s-3.8,1.7-3.8,4.5c0,1.4,0.5,2.7,1.4,3.8c0.1,0.1,0.2,0.3,0.2,0.5v1.2c0,0.4-0.3,0.7-0.7,0.8c-4.5,0.4-5.2,3.6-5.2,4.9
		c0,0.1,0,0.6,0,0.6h16.2v-0.6c0-1.2-0.8-4.4-5.3-4.9C31.4,34.5,31.1,34.2,31.2,33.8L31.2,33.8z"/>
</g>
</svg>
