<svg xmlns="http://www.w3.org/2000/svg" width="24" height="24" viewBox="0 0 24 24">
  <g id="그룹_162489" data-name="그룹 162489" transform="translate(-33.89 -32.078)">
    <path id="패스_26887" data-name="패스 26887" d="M42.9,31.078a12,12,0,1,0,12,12A11.99,11.99,0,0,0,42.9,31.078Z" transform="translate(2.99 1)" fill="#ff784f"/>
    <g id="그룹_21641" data-name="그룹 21641" transform="translate(0.388)">
      <path id="패스_26889" data-name="패스 26889" d="M45.582,50.959a1.048,1.048,0,0,0-.783.318,1.061,1.061,0,0,0-.3.715,1.032,1.032,0,0,0,.351.768.967.967,0,0,0,.7.265.989.989,0,0,0,.73-.291,1.108,1.108,0,0,0,.351-.848,1.041,1.041,0,0,0-.243-.557A1.062,1.062,0,0,0,45.582,50.959Z" transform="translate(0 -3.055)" fill="#fff" stroke="#fff" stroke-miterlimit="10" stroke-width="0.99"/>
      <path id="패스_26890" data-name="패스 26890" d="M45.216,46.022h.811a.24.24,0,0,0,.243-.238l.162-7.641a.24.24,0,0,0-.243-.238H45.027a.24.24,0,0,0-.243.238l.189,7.641A.24.24,0,0,0,45.216,46.022Z" transform="translate(-0.066)" fill="#fff" stroke="#fff" stroke-miterlimit="10" stroke-width="0.99"/>
      <path id="패스_26891" data-name="패스 26891" d="M44.961,37.905h1.162a.24.24,0,0,1,.243.238L46.2,45.784a.24.24,0,0,1-.243.238H45.15a.24.24,0,0,1-.243-.238l-.189-7.641A.24.24,0,0,1,44.961,37.905Zm1.324,11.774a.989.989,0,0,1-.73.291.967.967,0,0,1-.7-.265,1.032,1.032,0,0,1-.351-.768,1.061,1.061,0,0,1,.3-.715,1.048,1.048,0,0,1,.783-.318,1.062,1.062,0,0,1,.811.371,1.041,1.041,0,0,1,.243.557A1.108,1.108,0,0,1,46.285,49.679Z" fill="#fff" stroke="#fff" stroke-miterlimit="10" stroke-width="0.99"/>
    </g>
  </g>
</svg>
