<svg xmlns="http://www.w3.org/2000/svg" width="24.733" height="27.667" viewBox="0 0 24.733 27.667">
  <g id="그룹_3986" data-name="그룹 3986" transform="translate(-2.936)">
    <path id="패스_16471" data-name="패스 16471" d="M11.255,1.627h.814a.814.814,0,1,0,0-1.627H8.814a.814.814,0,1,0,0,1.627h.814V3.255h1.627Z" transform="translate(5.02)" fill="#d1d1d1"/>
    <path id="패스_16472" data-name="패스 16472" d="M14.329,2.11A12.157,12.157,0,0,0,6.273,5.145L4.92,3.788,5.5,3.213A.814.814,0,1,0,4.345,2.062l-.575.575L2.619,3.788l-.577.576A.814.814,0,1,0,3.194,5.515l.575-.575L5.127,6.3a12.206,12.206,0,1,0,9.2-4.187Zm0,22.784A10.578,10.578,0,1,1,20.7,5.874L13.44,13.136c-.017.017-.03.033-.046.05a1.512,1.512,0,1,0,2.085,2.19l.046-.045c.019-.017.037-.037.055-.055l7.253-7.252a10.578,10.578,0,0,1-8.5,16.87Z" transform="translate(1.132 1.144)" fill="#d1d1d1"/>
  </g>
</svg>
