<svg xmlns="http://www.w3.org/2000/svg" width="19" height="23" viewBox="0 0 19 23">
  <g id="list_icon" transform="translate(-1515 -1371)">
    <g id="share">
      <g id="벡터_고급_개체" data-name="벡터 고급 개체" transform="translate(1499.225 1358.5)">
        <path id="패스_45038" data-name="패스 45038" d="M31.465,35.5a3.2,3.2,0,0,1-2.338-.963,3.141,3.141,0,0,1-.973-2.315,3.032,3.032,0,0,1,.043-.474,2.53,2.53,0,0,1,.131-.5l-6.863-5.06a3.328,3.328,0,0,1-1.075.791,3.029,3.029,0,0,1-1.307.3,3.2,3.2,0,0,1-2.337-.963,3.257,3.257,0,0,1,0-4.643,3.329,3.329,0,0,1,3.615-.69,3.512,3.512,0,0,1,1.1.748l6.863-5a1.966,1.966,0,0,1-.131-.46,2.915,2.915,0,0,1-.043-.489,3.124,3.124,0,0,1,.973-2.328,3.371,3.371,0,0,1,4.689,0,3.291,3.291,0,0,1,0,4.643,3.187,3.187,0,0,1-2.351.963,3.927,3.927,0,0,1-1.293-.216,2.468,2.468,0,0,1-1.059-.7l-6.863,4.83a5.143,5.143,0,0,1,.1.532,3.594,3.594,0,0,1,.043.5,2.3,2.3,0,0,1-.043.431c-.029.154-.063.307-.1.46l6.863,4.945a3.464,3.464,0,0,1,1.016-.647,3.417,3.417,0,0,1,1.336-.244,3.21,3.21,0,0,1,2.351.949,3.291,3.291,0,0,1,0,4.643A3.187,3.187,0,0,1,31.465,35.5Zm0-18.17a1.526,1.526,0,0,0,1.117-.446,1.584,1.584,0,0,0,0-2.213,1.623,1.623,0,0,0-2.235,0,1.584,1.584,0,0,0,0,2.213A1.526,1.526,0,0,0,31.465,17.33Zm-12.38,8.223a1.526,1.526,0,0,0,1.118-.446,1.585,1.585,0,0,0,0-2.214,1.623,1.623,0,0,0-2.235,0,1.585,1.585,0,0,0,0,2.214A1.529,1.529,0,0,0,19.085,25.553Zm12.38,8.222a1.526,1.526,0,0,0,1.117-.446,1.584,1.584,0,0,0,0-2.213,1.623,1.623,0,0,0-2.235,0,1.584,1.584,0,0,0,0,2.213A1.526,1.526,0,0,0,31.465,33.775Z"/>
      </g>
    </g>
  </g>
</svg>
