<?xml version="1.0" encoding="utf-8"?>
<!-- Generator: Adobe Illustrator 25.2.3, SVG Export Plug-In . SVG Version: 6.00 Build 0)  -->
<svg version="1.1" id="Layer_1" xmlns="http://www.w3.org/2000/svg" xmlns:xlink="http://www.w3.org/1999/xlink" x="0px" y="0px"
	 viewBox="0 0 120 120" style="enable-background:new 0 0 120 120;" xml:space="preserve">
<g>
	<path d="M43.5,17C26.3,23.7,14,40.4,14,60c0,25.4,20.6,46,46,46l2-13c-16.8,0-36.2-15.9-36.2-32.7c0-12.5,7.6-23.3,18.5-28L43.5,17
		z"/>
	<g>
		<polygon points="49.3,14.9 20,17.1 44.3,43.9 		"/>
	</g>
	<g>
		<path d="M48.1,16l-4.4,25.7L22.1,17.9L48.1,16 M49.3,14.9L20,17.1l24.4,26.8L49.3,14.9L49.3,14.9z"/>
	</g>
</g>
<g>
	<path d="M75.5,104C92.7,97.3,105,80.6,105,61c0-25.4-20.6-46-46-46l-2,13c16.8,0,36.2,15.9,36.2,32.7c0,12.5-7.6,23.3-18.5,28
		L75.5,104z"/>
	<g>
		<polygon points="69.7,106.1 99,103.9 74.7,77.1 		"/>
	</g>
	<g>
		<path d="M75.3,79.3l21.6,23.8l-26,1.9L75.3,79.3 M74.7,77.1l-5,29l29.3-2.2L74.7,77.1L74.7,77.1z"/>
	</g>
</g>
</svg>
