<?xml version="1.0" encoding="utf-8"?>
<!-- Generator: Adobe Illustrator 26.5.1, SVG Export Plug-In . SVG Version: 6.00 Build 0)  -->
<svg version="1.1" id="Layer_1" xmlns="http://www.w3.org/2000/svg" xmlns:xlink="http://www.w3.org/1999/xlink" x="0px" y="0px"
	 viewBox="0 0 20 20" style="enable-background:new 0 0 20 20;" xml:space="preserve">
<path d="M8.3,6.6h7V5.1h-7V6.6z M8.3,9.2h7V7.7h-7V9.2z M8.3,11.8h4.3v-1.5H8.3V11.8z M5.7,6.7c0.2,0,0.5-0.1,0.6-0.2
	c0.2-0.2,0.2-0.4,0.2-0.6S6.4,5.4,6.3,5.3C6.1,5.1,5.9,5,5.7,5C5.4,5,5.2,5.1,5.1,5.2C4.9,5.4,4.8,5.6,4.8,5.8C4.8,6,4.9,6.3,5,6.4
	C5.2,6.6,5.4,6.7,5.7,6.7z M5.7,9.3c0.2,0,0.5-0.1,0.6-0.2c0.2-0.2,0.2-0.4,0.2-0.6c0-0.2-0.1-0.5-0.2-0.6C6.1,7.7,5.9,7.6,5.7,7.6
	c-0.2,0-0.5,0.1-0.6,0.2C4.9,8,4.8,8.2,4.8,8.4C4.8,8.6,4.9,8.9,5,9C5.2,9.2,5.4,9.3,5.7,9.3z M5.7,11.9c0.2,0,0.5-0.1,0.6-0.2
	c0.2-0.2,0.2-0.4,0.2-0.6c0-0.2-0.1-0.5-0.2-0.6c-0.2-0.2-0.4-0.3-0.6-0.3c-0.2,0-0.5,0.1-0.6,0.2c-0.2,0.2-0.3,0.4-0.3,0.6
	s0.1,0.5,0.2,0.6C5.2,11.8,5.4,11.9,5.7,11.9z M1.3,18.8V2.9c0-0.4,0.1-0.7,0.4-1s0.6-0.4,1-0.4h14.4c0.4,0,0.7,0.1,1,0.4
	s0.4,0.6,0.4,1v11c0,0.4-0.1,0.7-0.4,1s-0.6,0.4-1,0.4H4.8L1.3,18.8z M2.8,15.3l1.4-1.4h13v-11H2.8V15.3z M2.8,2.9v12.4V2.9z"/>
</svg>
