<svg xmlns="http://www.w3.org/2000/svg" width="14.04" height="11.57" viewBox="0 0 14.04 11.57">
  <path id="패스_45926" data-name="패스 45926" d="M217.407,27.6s-1.351.767-1.763.639a3.381,3.381,0,0,0-2.145-.9,2.883,2.883,0,0,0-2.857,2.955,1.1,1.1,0,0,0,.072.557,7.27,7.27,0,0,1-6-2.942,2.8,2.8,0,0,0,.867,3.766,1.265,1.265,0,0,1-1.263-.256,2.9,2.9,0,0,0,2.3,2.828,2.106,2.106,0,0,1-1.264.114,2.7,2.7,0,0,0,2.672,1.961,5.6,5.6,0,0,1-4.249,1.222s4.616,3.594,10.089-.881A8.758,8.758,0,0,0,216.4,30.2a4.958,4.958,0,0,0,1.421-1.421,2,2,0,0,1-1.591.327S217.35,28.328,217.407,27.6Z" transform="translate(-203.779 -27.346)" fill="#fff"/>
</svg>
