<svg xmlns="http://www.w3.org/2000/svg" width="16" height="17" viewBox="0 0 16 17">
  <g id="벡터_고급_개체" data-name="벡터 고급 개체" transform="translate(-17.206 -11.075)">
    <path id="패스_26614" data-name="패스 26614" d="M24.242,28.074l-.283-2.555a7.064,7.064,0,0,1-1.786-.667,5.942,5.942,0,0,1-1.5-1.166l-2.5.944-.965-1.556,2.1-1.556a5.723,5.723,0,0,1,0-3.888l-2.042-1.667.964-1.556,2.441,1a4.963,4.963,0,0,1,1.475-1.167,6.159,6.159,0,0,1,1.816-.611l.283-2.555h1.929l.284,2.555a6.163,6.163,0,0,1,1.815.611,4.981,4.981,0,0,1,1.476,1.167l2.44-1,.964,1.611L31.107,17.63a5.723,5.723,0,0,1,0,3.888l2.1,1.556-.964,1.556-2.5-.944a5.965,5.965,0,0,1-1.505,1.166,7.072,7.072,0,0,1-1.785.667l-.284,2.555Zm.965-4.5A3.983,3.983,0,0,0,28.1,22.408a3.816,3.816,0,0,0,1.191-2.834,3.861,3.861,0,0,0-1.219-2.86,3.965,3.965,0,0,0-2.866-1.2,4.025,4.025,0,0,0-2.922,1.2,3.859,3.859,0,0,0-1.221,2.86,3.774,3.774,0,0,0,1.221,2.834A4.078,4.078,0,0,0,25.207,23.574Z" fill="#fff"/>
  </g>
</svg>
