<svg xmlns="http://www.w3.org/2000/svg" width="32.879" height="30" viewBox="0 0 32.879 30">
  <path id="print_FILL0_wght200_GRAD0_opsz40" d="M30.446,15.367V9.318h-16.1v6.049H12.69V7.708H32.105v7.659ZM7.617,17.026h0Zm26,4.78a1.833,1.833,0,0,0,1.317-.513A1.709,1.709,0,0,0,35.471,20a1.653,1.653,0,0,0-.537-1.243,1.773,1.773,0,0,0-1.268-.513,1.75,1.75,0,0,0-1.292.513A1.691,1.691,0,0,0,31.86,20a1.75,1.75,0,0,0,.513,1.292A1.691,1.691,0,0,0,33.617,21.806ZM30.446,36.05V26.732h-16.1V36.05Zm1.659,1.658H12.69V29.659H5.958V19.075a3.666,3.666,0,0,1,3.708-3.708H35.129a3.666,3.666,0,0,1,3.708,3.708V29.659H32.105ZM37.178,28V19.025a1.927,1.927,0,0,0-.585-1.414,1.986,1.986,0,0,0-1.463-.585H9.666a2,2,0,0,0-2.049,2.049V28H12.69V25.075H32.105V28Z" transform="translate(-5.958 -7.708)" fill="#4b4b4b"/>
</svg>
