<?xml version="1.0" encoding="utf-8"?>
<!-- Generator: Adobe Illustrator 25.2.3, SVG Export Plug-In . SVG Version: 6.00 Build 0)  -->
<svg version="1.1" id="레이어_1" xmlns="http://www.w3.org/2000/svg" xmlns:xlink="http://www.w3.org/1999/xlink" x="0px"
	 y="0px" viewBox="0 0 48 48" style="enable-background:new 0 0 48 48;" xml:space="preserve">
<style type="text/css">
	.st0{fill:#666666;}
</style>
<path class="st0" d="M23,33.8c-1.6,0-3-0.5-4.1-1.6c-1.1-1.1-1.7-2.4-1.7-4V17.9c0-1.1,0.4-2.1,1.2-2.9c0.8-0.8,1.8-1.2,2.9-1.2
	c1.1,0,2.1,0.4,2.9,1.2s1.2,1.8,1.2,2.9v9.3c0,0.7-0.2,1.3-0.7,1.8c-0.5,0.5-1.1,0.7-1.8,0.7c-0.7,0-1.3-0.3-1.8-0.8
	s-0.7-1.1-0.7-1.9v-9.2H22v9.3c0,0.3,0.1,0.6,0.3,0.8s0.4,0.3,0.7,0.3c0.3,0,0.5-0.1,0.7-0.3c0.2-0.2,0.3-0.5,0.3-0.8v-9.3
	c0-0.7-0.3-1.4-0.8-1.9c-0.5-0.5-1.1-0.8-1.9-0.8c-0.7,0-1.4,0.3-1.9,0.8c-0.5,0.5-0.8,1.1-0.8,1.9v10.3c0,1.2,0.4,2.2,1.3,3
	c0.9,0.8,1.9,1.2,3,1.2c1.2,0,2.2-0.4,3.1-1.2c0.8-0.8,1.3-1.8,1.3-3V17.9h1.4v10.3c0,1.6-0.6,2.9-1.7,4C26,33.3,24.6,33.8,23,33.8z
	"/>
</svg>
