<?xml version="1.0" encoding="utf-8"?>
<!-- Generator: Adobe Illustrator 26.5.1, SVG Export Plug-In . SVG Version: 6.00 Build 0)  -->
<svg version="1.1" id="레이어_1" xmlns="http://www.w3.org/2000/svg" xmlns:xlink="http://www.w3.org/1999/xlink" x="0px"
	 y="0px" viewBox="0 0 40 80" style="enable-background:new 0 0 40 80;" xml:space="preserve">
<style type="text/css">
	.st0{display:none;fill:#686868;}
	.st1{fill:#333333;}
	.st2{fill:#3B599A;}
	.st3{fill:#FFFFFF;}
</style>
<rect class="st0" width="40" height="40"/>
<path class="st1" d="M13.4,25l1.6,1.6c0.2,0.2,0.5,0.3,0.8,0.3s0.6-0.1,0.8-0.3l2.3-2.3c0.2-0.2,0.3-0.5,0.3-0.8s-0.1-0.6-0.4-0.8
	c0,0-0.1,0.1-0.2,0.2s-0.2,0.2-0.2,0.2s-0.1,0.1-0.2,0.2s-0.2,0.1-0.3,0.1c-0.1,0-0.2,0-0.3,0c-0.3,0-0.5-0.1-0.8-0.3
	c-0.2-0.2-0.3-0.5-0.3-0.8c0-0.1,0-0.2,0-0.3c0-0.1,0.1-0.2,0.1-0.3c0.1-0.1,0.1-0.2,0.2-0.2c0,0,0.1-0.1,0.2-0.2s0.2-0.2,0.2-0.2
	c-0.2-0.2-0.5-0.4-0.8-0.4s-0.5,0.1-0.8,0.3l-2.3,2.3c-0.2,0.2-0.3,0.5-0.3,0.8C13.1,24.5,13.2,24.8,13.4,25z M21.2,17.3
	c0,0,0.1-0.1,0.2-0.2s0.2-0.2,0.2-0.2s0.1-0.1,0.2-0.2s0.2-0.1,0.3-0.1c0.1,0,0.2,0,0.3,0c0.3,0,0.5,0.1,0.8,0.3s0.3,0.5,0.3,0.8
	c0,0.1,0,0.2,0,0.3c0,0.1-0.1,0.2-0.1,0.3c-0.1,0.1-0.1,0.2-0.2,0.2c0,0-0.1,0.1-0.2,0.2s-0.2,0.2-0.2,0.2c0.2,0.2,0.5,0.3,0.8,0.3
	s0.6-0.1,0.8-0.3l2.3-2.3c0.2-0.2,0.3-0.5,0.3-0.8s-0.1-0.5-0.3-0.7L25,13.4c-0.2-0.2-0.5-0.3-0.8-0.3s-0.5,0.1-0.8,0.3l-2.3,2.3
	c-0.2,0.2-0.3,0.5-0.3,0.8C20.9,16.8,21,17,21.2,17.3z M11.9,22l2.3-2.3c0.6-0.6,1.4-0.9,2.2-0.9c0.9,0,1.7,0.3,2.3,1l1-1
	c-0.6-0.6-1-1.4-1-2.3s0.3-1.6,0.9-2.2l2.3-2.3c0.6-0.6,1.4-0.9,2.2-0.9c0.9,0,1.6,0.3,2.2,0.9l1.6,1.6c0.6,0.6,0.9,1.4,0.9,2.2
	s-0.3,1.6-0.9,2.2l-2.3,2.3c-0.6,0.6-1.4,0.9-2.2,0.9c-0.9,0-1.7-0.3-2.3-1l-1,1c0.6,0.6,1,1.4,1,2.3s-0.3,1.6-0.9,2.2L18,28.1
	c-0.6,0.6-1.4,0.9-2.2,0.9c-0.9,0-1.6-0.3-2.2-0.9L12,26.5c-0.6-0.6-0.9-1.4-0.9-2.2S11.3,22.6,11.9,22z"/>
<rect y="40" class="st2" width="40" height="40"/>
<path class="st3" d="M13.4,65l1.6,1.6c0.2,0.2,0.5,0.3,0.8,0.3s0.6-0.1,0.8-0.3l2.3-2.3c0.2-0.2,0.3-0.5,0.3-0.8s-0.1-0.6-0.4-0.8
	c0,0-0.1,0.1-0.2,0.2c-0.1,0.1-0.2,0.2-0.2,0.2s-0.1,0.1-0.2,0.2c-0.1,0.1-0.2,0.1-0.3,0.1c-0.1,0-0.2,0-0.3,0
	c-0.3,0-0.5-0.1-0.8-0.3c-0.2-0.2-0.3-0.5-0.3-0.8c0-0.1,0-0.2,0-0.3s0.1-0.2,0.1-0.3c0.1-0.1,0.1-0.2,0.2-0.2c0,0,0.1-0.1,0.2-0.2
	s0.2-0.2,0.2-0.2c-0.2-0.2-0.5-0.4-0.8-0.4s-0.5,0.1-0.8,0.3l-2.3,2.3C13.1,63.5,13,63.8,13,64C13.1,64.5,13.2,64.8,13.4,65z
	 M21.2,57.3c0,0,0.1-0.1,0.2-0.2c0.1-0.1,0.2-0.2,0.2-0.2s0.1-0.1,0.2-0.2c0.1-0.1,0.2-0.1,0.3-0.1c0.1,0,0.2,0,0.3,0
	c0.3,0,0.5,0.1,0.8,0.3s0.3,0.5,0.3,0.8c0,0.1,0,0.2,0,0.3s-0.1,0.2-0.1,0.3c-0.1,0.1-0.1,0.2-0.2,0.2s-0.1,0.1-0.2,0.2
	s-0.2,0.2-0.2,0.2c0.2,0.2,0.5,0.3,0.8,0.3s0.6-0.1,0.8-0.3l2.3-2.3c0.2-0.2,0.3-0.5,0.3-0.8s-0.1-0.5-0.3-0.7L25,53.4
	c-0.2-0.2-0.5-0.3-0.8-0.3s-0.5,0.1-0.8,0.3l-2.3,2.3c-0.2,0.2-0.3,0.5-0.3,0.8C20.9,56.8,21,57,21.2,57.3z M11.9,62l2.3-2.3
	c0.6-0.6,1.4-0.9,2.2-0.9c0.9,0,1.7,0.3,2.3,1l1-1c-0.6-0.6-1-1.4-1-2.3c0-0.9,0.3-1.6,0.9-2.2l2.3-2.3c0.6-0.6,1.4-0.9,2.2-0.9
	c0.9,0,1.6,0.3,2.2,0.9l1.6,1.6c0.6,0.6,0.9,1.4,0.9,2.2c0,0.9-0.3,1.6-0.9,2.2l-2.3,2.3c-0.6,0.6-1.4,0.9-2.2,0.9
	c-0.9,0-1.7-0.3-2.3-1l-1,1c0.6,0.6,1,1.4,1,2.3c0,0.9-0.3,1.6-0.9,2.2L18,68.1c-0.6,0.6-1.4,0.9-2.2,0.9c-0.9,0-1.6-0.3-2.2-0.9
	L12,66.5c-0.6-0.6-0.9-1.4-0.9-2.2C11,63.4,11.3,62.6,11.9,62z"/>
</svg>
