<svg xmlns="http://www.w3.org/2000/svg" width="16" height="13" viewBox="0 0 16 13">
  <g id="벡터_고급_개체" data-name="벡터 고급 개체" transform="translate(-2 -4.16)">
    <path id="패스_45112" data-name="패스 45112" d="M15.359,13l-2.873,2.812a.8.8,0,0,0-.032,1.1.729.729,0,0,0,1.06.033l4.25-4.16a.8.8,0,0,0,0-1.136l-4.25-4.16a.729.729,0,0,0-1.06.033.8.8,0,0,0,.032,1.1l2.873,2.812H5.25A1.785,1.785,0,0,1,3.5,9.62V4.94a.766.766,0,0,0-.75-.78A.766.766,0,0,0,2,4.94V9.62A3.317,3.317,0,0,0,5.25,13Z" fill="#212121"/>
  </g>
</svg>
