<svg xmlns="http://www.w3.org/2000/svg" width="25" height="25" viewBox="0 0 25 25">
  <g id="그룹_40493" data-name="그룹 40493" transform="translate(-5.466 -5)">
    <path id="패스_45127" data-name="패스 45127" d="M17.632,30a.906.906,0,1,1,0-1.812A10.834,10.834,0,0,0,28.606,17.5,10.834,10.834,0,0,0,17.632,6.812a.906.906,0,1,1,0-1.812A12.669,12.669,0,0,1,30.465,17.5,12.669,12.669,0,0,1,17.632,30Z"/>
    <path id="패스_45128" data-name="패스 45128" d="M19.547,18.406H6.4a.906.906,0,1,1,0-1.812H19.547a.906.906,0,1,1,0,1.812Z"/>
    <path id="패스_45129" data-name="패스 45129" d="M14.793,23.977a.918.918,0,0,1-.933-.9.892.892,0,0,1,.275-.646L18.884,17.8a.422.422,0,0,0,0-.608h0l-4.749-4.621a.889.889,0,0,1-.024-1.28.948.948,0,0,1,1.315-.023l.023.022L20.2,15.915a2.207,2.207,0,0,1,0,3.17l-4.75,4.627A.941.941,0,0,1,14.793,23.977Z"/>
  </g>
</svg>
