<?xml version="1.0" encoding="utf-8"?>
<!-- Generator: Adobe Illustrator 26.5.1, SVG Export Plug-In . SVG Version: 6.00 Build 0)  -->
<svg version="1.1" id="레이어_1" xmlns="http://www.w3.org/2000/svg" xmlns:xlink="http://www.w3.org/1999/xlink" x="0px"
	 y="0px" viewBox="0 0 40 80" style="enable-background:new 0 0 40 80;" xml:space="preserve">
<style type="text/css">
	.st0{display:none;fill:#080A0F;}
	.st1{fill:#333333;}
	.st2{fill:#41B549;}
	.st3{fill:#FFFFFF;}
</style>
<rect class="st0" width="40" height="40"/>
<g>
	<path class="st1" d="M15.8,24.2h8.3v4.2h-8.3V24.2z M25.8,26.7v-4.2H14.2v4.2h-1.7c-0.5,0-0.8-0.4-0.8-0.8v-8.3
		c0-0.5,0.4-0.8,0.8-0.8h15c0.5,0,0.8,0.4,0.8,0.8v8.3c0,0.5-0.4,0.8-0.8,0.8H25.8z M14.2,18.3V20h2.5v-1.7H14.2z M15.8,11.7h8.3
		c0.5,0,0.8,0.4,0.8,0.8V15H15v-2.5C15,12,15.4,11.7,15.8,11.7z"/>
</g>
<rect y="40" class="st2" width="40" height="40"/>
<g>
	<path class="st3" d="M15.8,64.2h8.3v4.2h-8.3V64.2z M25.8,66.7v-4.2H14.2v4.2h-1.7c-0.5,0-0.8-0.4-0.8-0.8v-8.3
		c0-0.5,0.4-0.8,0.8-0.8h15c0.5,0,0.8,0.4,0.8,0.8v8.3c0,0.5-0.4,0.8-0.8,0.8H25.8z M14.2,58.3V60h2.5v-1.7H14.2z M15.8,51.7h8.3
		c0.5,0,0.8,0.4,0.8,0.8V55H15v-2.5C15,52,15.4,51.7,15.8,51.7z"/>
</g>
</svg>
