<svg xmlns="http://www.w3.org/2000/svg" width="30.019" height="31" viewBox="0 0 30.019 31">
  <g id="free_cancellation_FILL0_wght200_GRAD0_opsz40" transform="translate(-5.381 -4.3)">
    <g id="레이어_1_사본">
      <path id="패스_48599" data-name="패스 48599" d="M27.1,35.3l-4.9-4.9,1-1L27,33.2l7.4-7.4,1,1Zm-19.3-1a2.06,2.06,0,0,1-1.7-.7,2.41,2.41,0,0,1-.7-1.8V10.3A2.244,2.244,0,0,1,7.7,7.8h4.4V4.3h1.6V7.8H26.2V4.3h1.5V7.8h4.4a2.06,2.06,0,0,1,1.7.7,2.342,2.342,0,0,1,.7,1.7V21.3L33,22.8V17.5H6.8V31.8a1.025,1.025,0,0,0,1,1H18.4l1.5,1.5Zm-1-18.2H33.3V10.3a1.025,1.025,0,0,0-1-1H7.8a1.025,1.025,0,0,0-1,1Zm0,0v0Z" fill="#4b4b4b"/>
    </g>
    <g id="레이어_2">
      <path id="패스_48600" data-name="패스 48600" d="M18.5,22.4a1.3,1.3,0,1,1,.9-2.2,1.086,1.086,0,0,1,.4.9.975.975,0,0,1-.4.9A1.8,1.8,0,0,1,18.5,22.4Z" fill="#4b4b4b"/>
      <path id="패스_48601" data-name="패스 48601" d="M11.8,22.4a1.222,1.222,0,0,1-.9-.4,1.086,1.086,0,0,1-.4-.9,1.222,1.222,0,0,1,.4-.9,1.8,1.8,0,0,1,.9-.4,1.222,1.222,0,0,1,.9.4,1.086,1.086,0,0,1,.4.9.975.975,0,0,1-.4.9A1.8,1.8,0,0,1,11.8,22.4Z" fill="#4b4b4b"/>
      <path id="패스_48602" data-name="패스 48602" d="M11.8,28.8a1.222,1.222,0,0,1-.9-.4,1.086,1.086,0,0,1-.4-.9,1.273,1.273,0,0,1,2.2-.9,1.222,1.222,0,0,1,.4.9.975.975,0,0,1-.4.9A1.8,1.8,0,0,1,11.8,28.8Z" fill="#4b4b4b"/>
    </g>
  </g>
</svg>
