<svg xmlns="http://www.w3.org/2000/svg" width="24" height="22" viewBox="0 0 24 22">
  <g id="like" transform="translate(-1436 -1590)">
    <g id="벡터_고급_개체" data-name="벡터 고급 개체" transform="translate(1434.909 1589)">
      <path id="패스_26787" data-name="패스 26787" d="M13.091,5.03,12.015,3.95C9.491,1.412,4.862,2.288,3.191,5.478c-.784,1.5-.961,3.666.47,6.431,1.381,2.662,4.252,5.851,9.43,9.324,5.178-3.473,8.047-6.662,9.429-9.324,1.433-2.766,1.257-4.931.471-6.431-1.671-3.19-6.3-4.067-8.825-1.53Zm0,17.97C-9.91,8.14,6.01-3.459,12.827,2.676c.09.081.178.165.264.251q.127-.129.264-.249C20.171-3.462,36.091,8.138,13.091,23Z"/>
    </g>
  </g>
</svg>
