<?xml version="1.0" encoding="utf-8"?>
<!-- Generator: Adobe Illustrator 26.5.1, SVG Export Plug-In . SVG Version: 6.00 Build 0)  -->
<svg version="1.1" xmlns="http://www.w3.org/2000/svg" xmlns:xlink="http://www.w3.org/1999/xlink" x="0px" y="0px"
	 viewBox="0 0 40 80" style="enable-background:new 0 0 40 80;" xml:space="preserve">
<style type="text/css">
	.st0{display:none;fill:#BDD5FF;}
	.st1{fill:#333333;}
	.st2{fill:#29ADE3;}
	.st3{fill:#FFFFFF;}
</style>
<g id="레이어_1">
	<rect class="st0" width="40" height="40"/>
	<path id="패스_45926" class="st1" d="M29.4,13.1c0,0-1.9,1.1-2.5,0.9c-0.8-0.8-1.9-1.2-3.1-1.3c-2.3,0-4.1,1.9-4.1,4.1
		c0,0,0,0,0,0.1c0,0.3,0,0.5,0.1,0.8c-3.4,0.1-6.5-1.5-8.5-4.2c-1.1,1.8-0.5,4.2,1.2,5.4c-0.6,0.2-1.3,0.1-1.8-0.4
		c0,1.9,1.4,3.6,3.3,4c-0.6,0.2-1.2,0.3-1.8,0.2c0.5,1.7,2,2.8,3.8,2.8c-1.7,1.4-3.9,2-6.1,1.7c0,0,6.6,5.1,14.4-1.3
		c2.4-2.4,3.7-5.8,3.6-9.2c0.8-0.5,1.5-1.2,2-2c-0.7,0.5-1.5,0.6-2.3,0.5C27.7,15.3,29.3,14.2,29.4,13.1z"/>
	<rect y="40" class="st2" width="40" height="40"/>
	<path id="패스_45926_00000054259312284924330250000010369579810284681134_" class="st3" d="M29.4,53.1c0,0-1.9,1.1-2.5,0.9
		c-0.8-0.8-1.9-1.2-3.1-1.3c-2.3,0-4.1,1.9-4.1,4.1c0,0,0,0,0,0.1c0,0.3,0,0.5,0.1,0.8c-3.4,0.1-6.5-1.5-8.5-4.2
		c-1.1,1.8-0.5,4.2,1.2,5.4c-0.6,0.2-1.3,0.1-1.8-0.4c0,1.9,1.4,3.6,3.3,4c-0.6,0.2-1.2,0.3-1.8,0.2c0.5,1.7,2,2.8,3.8,2.8
		c-1.7,1.4-3.9,2-6.1,1.7c0,0,6.6,5.1,14.4-1.3c2.4-2.4,3.7-5.8,3.6-9.2c0.8-0.5,1.5-1.2,2-2c-0.7,0.5-1.5,0.6-2.3,0.5
		C27.7,55.3,29.3,54.2,29.4,53.1z"/>
</g>
<g id="레이어_2">
</g>
</svg>
