<svg xmlns="http://www.w3.org/2000/svg" width="19.517" height="16.498" viewBox="0 0 19.517 16.498">
  <path id="패스_45931" data-name="패스 45931" d="M119.236,25.243H106.51a3.4,3.4,0,0,0-3.4,3.4V35.23a3.4,3.4,0,0,0,3.4,3.4h4.784l1.579,3.115,1.789-3.115h4.573a3.4,3.4,0,0,0,3.4-3.4V28.638A3.4,3.4,0,0,0,119.236,25.243ZM107.33,34.261a1.861,1.861,0,0,1-.949-.26v.235h-1.273V29.069h1.273v1.708a1.871,1.871,0,1,1,.949,3.484Zm3.968-3.445v3.445h-1.222V30.816c0-.749-.474-.749-.474-.749v-1a1.53,1.53,0,0,1,1.63,1.248,2.205,2.205,0,0,1,.066.493Zm2.772,3.6a1.977,1.977,0,1,1,1.977-1.976A1.977,1.977,0,0,1,114.07,34.413Zm4.268,1.627v-1s1.109.129,1.109-.5v-.53a1.829,1.829,0,1,1,0-3.154V30.7h1.183v3.845S120.889,36.041,118.338,36.041Z" transform="translate(-103.115 -25.243)" fill="#fff"/>
</svg>
