<svg xmlns="http://www.w3.org/2000/svg" width="16" height="16" viewBox="0 0 16 16">
  <path id="Path_16779" data-name="Path 16779" d="M16.45,7.9H14.894a5.976,5.976,0,0,0-.921-2.253l1.1-1.1a.55.55,0,0,0,0-.778h0l-.837-.836a.55.55,0,0,0-.778,0h0l-1.1,1.1a5.962,5.962,0,0,0-2.253-.92V1.55A.55.55,0,0,0,9.553,1H8.45a.55.55,0,0,0-.55.55V3.106a5.962,5.962,0,0,0-2.253.92l-1.1-1.1a.55.55,0,0,0-.778,0h0l-.842.836a.55.55,0,0,0,0,.778h0l1.1,1.1A5.976,5.976,0,0,0,3.105,7.9H1.55A.55.55,0,0,0,1,8.45v1.1a.55.55,0,0,0,.55.55H3.105a5.967,5.967,0,0,0,.921,2.254l-1.1,1.106a.55.55,0,0,0,0,.778h0l.836.837a.55.55,0,0,0,.778,0h0l1.1-1.1a5.962,5.962,0,0,0,2.254.921V16.45a.55.55,0,0,0,.55.55h1.1a.55.55,0,0,0,.55-.55V14.894a5.962,5.962,0,0,0,2.253-.92l1.1,1.1a.55.55,0,0,0,.778,0h0l.837-.837a.55.55,0,0,0,0-.778h0l-1.1-1.1a5.967,5.967,0,0,0,.921-2.253H16.45a.55.55,0,0,0,.55-.55V8.45a.55.55,0,0,0-.546-.553ZM11.207,9A2.207,2.207,0,1,1,9,6.793H9A2.207,2.207,0,0,1,11.207,9Z" transform="translate(-1 -1)" fill="#a1a1a1"/>
</svg>
