<svg xmlns="http://www.w3.org/2000/svg" width="20" height="20" viewBox="0 0 20 20">
  <g id="그룹_40495" data-name="그룹 40495" transform="translate(-2 -2)">
    <path id="패스_45041" data-name="패스 45041" d="M18.667,2A3.333,3.333,0,0,1,22,5.333V18.667A3.333,3.333,0,0,1,18.667,22H5.333A3.333,3.333,0,0,1,2,18.667V5.333A3.333,3.333,0,0,1,5.333,2Z" fill="#fff"/>
    <path id="패스_45041_-_윤곽선" data-name="패스 45041 - 윤곽선" d="M5.333,3.4A1.935,1.935,0,0,0,3.4,5.333V18.667A1.935,1.935,0,0,0,5.333,20.6H18.667A1.935,1.935,0,0,0,20.6,18.667V5.333A1.935,1.935,0,0,0,18.667,3.4H5.333m0-1.4H18.667A3.333,3.333,0,0,1,22,5.333V18.667A3.333,3.333,0,0,1,18.667,22H5.333A3.333,3.333,0,0,1,2,18.667V5.333A3.333,3.333,0,0,1,5.333,2Z" fill="#999"/>
    <path id="패스_45042" data-name="패스 45042" d="M16.966,7.522,9.778,14.71,7.034,11.966a.834.834,0,1,0-1.179,1.179l3.334,3.333a.832.832,0,0,0,1.178,0L18.145,8.7a.833.833,0,0,0-1.179-1.178Z" fill="#999"/>
  </g>
</svg>
