<?xml version="1.0" encoding="utf-8"?>
<!-- Generator: Adobe Illustrator 26.5.1, SVG Export Plug-In . SVG Version: 6.00 Build 0)  -->
<svg version="1.1" id="Layer_1" xmlns="http://www.w3.org/2000/svg" xmlns:xlink="http://www.w3.org/1999/xlink" x="0px" y="0px"
	 viewBox="0 0 20 20" style="enable-background:new 0 0 20 20;" xml:space="preserve">
<path d="M15.1,4.4h-2.3l1.5-1.5c0.4-0.4,0.4-1.2,0-1.6c-0.4-0.4-1.2-0.4-1.6,0L8.4,5.5l4.2,4.2c0.2,0.2,0.5,0.3,0.8,0.3
	c0.3,0,0.6-0.1,0.8-0.3c0.4-0.4,0.4-1.2,0-1.6l-1.5-1.5h2.3c1.6,0,2.8,1.5,2.8,3.4s-1.5,3.4-3.4,3.4l0,0c-0.6,0-1.1,0.5-1.1,1.1
	c0,0.6,0.5,1.1,1.1,1.1l0,0c3.1,0,5.6-2.5,5.6-5.6S17.9,4.4,15.1,4.4z"/>
<path d="M5.8,10.3c-0.4,0.4-0.4,1.2,0,1.6l1.5,1.5H4.9c-1.6,0-2.8-1.5-2.8-3.4s1.5-3.4,3.4-3.4l0,0c0.6,0,1.1-0.5,1.1-1.1
	S6.1,4.4,5.5,4.4l0,0c-3.1,0-5.6,2.5-5.6,5.6s2.3,5.6,5.1,5.6h2.3l-1.5,1.5c-0.4,0.4-0.4,1.2,0,1.6C6,18.9,6.3,19,6.6,19
	c0.3,0,0.6-0.1,0.8-0.3l4.2-4.2l-4.2-4.2C7,9.9,6.3,9.9,5.8,10.3z"/>
</svg>
