<?xml version="1.0" encoding="utf-8"?>
<!-- Generator: Adobe Illustrator 25.2.3, SVG Export Plug-In . SVG Version: 6.00 Build 0)  -->
<svg version="1.1" id="Layer_1" xmlns="http://www.w3.org/2000/svg" xmlns:xlink="http://www.w3.org/1999/xlink" x="0px" y="0px"
	 viewBox="0 0 40 40" style="enable-background:new 0 0 40 40;" xml:space="preserve">
<style type="text/css">
	.st0{fill:#444444;}
	.st1{fill:none;}
	.st2{fill:none;stroke:#444444;stroke-width:1.5;}
</style>
<g id="그룹_3062" transform="translate(-334 -848)">
	<path id="합치기_25" class="st0" d="M355.6,873.7v-1.6h6.6v1.6H355.6z M345.8,873.7v-1.6h8.2v1.6H345.8z M355.6,870.5v-1.6h6.6
		v1.6H355.6z M345.8,870.5v-8.2h8.2v8.2H345.8z M355.6,867.2v-1.6h6.6v1.6H355.6z M355.6,863.9v-1.6h6.6v1.6H355.6z"/>
	<g id="사각형_1482" transform="translate(334 848)">
		<path class="st1" d="M10.6,9.3h18.8c1.6,0,2.9,1.3,2.9,2.9v15.5c0,1.6-1.3,2.9-2.9,2.9H10.6c-1.6,0-2.9-1.3-2.9-2.9V12.2
			C7.7,10.6,9,9.3,10.6,9.3z"/>
		<path class="st2" d="M10.6,10.1h18.8c1.2,0,2.2,1,2.2,2.2v15.5c0,1.2-1,2.2-2.2,2.2H10.6c-1.2,0-2.2-1-2.2-2.2V12.2
			C8.4,11,9.4,10.1,10.6,10.1z"/>
	</g>
</g>
</svg>
