<svg xmlns="http://www.w3.org/2000/svg" width="29.833" height="29" viewBox="0 0 29.833 29">
  <path id="inventory_FILL0_wght200_GRAD0_opsz40" d="M18.208,33.417H9.083A2.316,2.316,0,0,1,7.375,32.7a2.409,2.409,0,0,1-.708-1.765V9.208a2.49,2.49,0,0,1,.666-1.765,2.052,2.052,0,0,1,1.542-.715h8.167a3.055,3.055,0,0,1,.937-1.639,2.574,2.574,0,0,1,1.813-.672,2.541,2.541,0,0,1,1.75.672A3,3,0,0,1,22.5,6.728h8.167a2.367,2.367,0,0,1,1.75.715,2.409,2.409,0,0,1,.708,1.765v7.4H31.708v-7.4a.982.982,0,0,0-.333-.735,1.019,1.019,0,0,0-.708-.316H26.375v3.866H13.417V8.157H9.083a.95.95,0,0,0-.687.316,1.01,1.01,0,0,0-.313.735V30.937a1.014,1.014,0,0,0,.313.736.951.951,0,0,0,.687.315h9.125Zm7.625-1.093L20.042,26.44l1-1.009,4.791,4.834L35.5,20.556l1,1.009ZM20,8.493a1.291,1.291,0,0,0,.958-.378,1.315,1.315,0,0,0,.375-.966,1.388,1.388,0,0,0-.375-.988,1.349,1.349,0,0,0-1.916,0,1.388,1.388,0,0,0-.375.988,1.315,1.315,0,0,0,.375.966A1.291,1.291,0,0,0,20,8.493Z" transform="translate(-6.667 -4.417)" fill="#4b4b4b"/>
</svg>
