<svg xmlns="http://www.w3.org/2000/svg" width="30.933" height="32" viewBox="0 0 30.933 32">
  <path id="settings_FILL0_wght200_GRAD0_opsz48" d="M19.089,38l-.711-5.067a11.589,11.589,0,0,1-2.156-.978,10.146,10.146,0,0,1-1.978-1.422L9.533,32.667,6.6,27.422l4.178-3.111q-.089-.533-.156-1.133a10.286,10.286,0,0,1-.067-1.133,9.7,9.7,0,0,1,.067-1.111q.067-.578.156-1.244L6.6,16.578l2.933-5.2L14.2,13.467a16,16,0,0,1,2.044-1.4,10.65,10.65,0,0,1,2.089-.956L19.089,6h5.956l.711,5.111a18.453,18.453,0,0,1,2.111,1A11.718,11.718,0,0,1,29.8,13.467l4.8-2.089,2.933,5.2-4.311,3.156a6.059,6.059,0,0,1,.222,1.178q.044.556.044,1.089a8.79,8.79,0,0,1-.067,1.044q-.067.556-.2,1.222l4.311,3.156-2.978,5.244L29.8,30.533a18.876,18.876,0,0,1-1.978,1.422,8.3,8.3,0,0,1-2.067.933L25.044,38Zm2.889-11.778A4.174,4.174,0,0,0,26.2,22a4.174,4.174,0,0,0-4.222-4.222A4.153,4.153,0,0,0,18.956,19a4.238,4.238,0,0,0,0,6A4.153,4.153,0,0,0,21.978,26.222Zm0-1.333a2.889,2.889,0,1,1,0-5.778A2.712,2.712,0,0,1,24,19.956a2.953,2.953,0,0,1,0,4.089A2.712,2.712,0,0,1,21.978,24.889ZM22.067,22ZM20.2,36.622h3.689l.667-4.933a10.8,10.8,0,0,0,2.489-1,11.353,11.353,0,0,0,2.311-1.756l4.578,1.956,1.778-3.067L31.667,24.8q.178-.8.267-1.467A10.078,10.078,0,0,0,32.022,22a9.922,9.922,0,0,0-.089-1.356q-.089-.644-.267-1.4l4.089-3.067-1.778-3.067-4.667,1.956a10.259,10.259,0,0,0-2.2-1.778,6.212,6.212,0,0,0-2.6-.978l-.578-4.933H20.2l-.533,4.889a7.8,7.8,0,0,0-2.622.956,12.9,12.9,0,0,0-2.311,1.8l-4.578-1.911L8.378,16.178l4,2.978a13.331,13.331,0,0,0-.289,1.378,9.791,9.791,0,0,0-.111,1.511,8.778,8.778,0,0,0,.111,1.4,13.762,13.762,0,0,0,.289,1.356l-4,3.022,1.778,3.067,4.533-1.911a10.254,10.254,0,0,0,2.267,1.733,10.608,10.608,0,0,0,2.667,1.022Z" transform="translate(-6.6 -6)" fill="#fff"/>
</svg>
