<?xml version="1.0" encoding="utf-8"?>
<!-- Generator: Adobe Illustrator 26.5.1, SVG Export Plug-In . SVG Version: 6.00 Build 0)  -->
<svg version="1.1" id="레이어_1" xmlns="http://www.w3.org/2000/svg" xmlns:xlink="http://www.w3.org/1999/xlink" x="0px"
	 y="0px" viewBox="0 0 40 80" style="enable-background:new 0 0 40 80;" xml:space="preserve">
<style type="text/css">
	.st0{display:none;fill:#686868;}
	.st1{fill:#333333;}
	.st2{fill:#3B599A;}
	.st3{fill:#FFFFFF;}
</style>
<g>
	<rect x="-0.1" class="st0" width="40" height="40"/>
	<g>
		<g>
			<path class="st1" d="M24.5,10v3.4h-1.9c-0.6,0-0.9,0.2-1.1,0.5c-0.1,0.2-0.2,0.6-0.2,1v1.6h3.2L24.2,20h-2.8v10h-4.1V20h-2v-3.5
				h2v-2.1c0-2.1,0.7-3.5,2.2-4.1c0.7-0.3,1.3-0.4,2-0.4H24.5z"/>
		</g>
	</g>
</g>
<g>
	<rect x="-0.1" y="40" class="st2" width="40" height="40"/>
	<g>
		<g>
			<path class="st3" d="M24.5,50v3.4h-1.9c-0.6,0-0.9,0.2-1.1,0.5c-0.1,0.2-0.2,0.6-0.2,1v1.6h3.2L24.2,60h-2.8v10h-4.1V60h-2v-3.5
				h2v-2.1c0-2.1,0.7-3.5,2.2-4.1c0.7-0.3,1.3-0.4,2-0.4H24.5z"/>
		</g>
	</g>
</g>
</svg>
