<?xml version="1.0" encoding="utf-8"?>
<!-- Generator: Adobe Illustrator 25.2.3, SVG Export Plug-In . SVG Version: 6.00 Build 0)  -->
<svg version="1.1" id="Decorative_icon" xmlns="http://www.w3.org/2000/svg" xmlns:xlink="http://www.w3.org/1999/xlink" x="0px"
	 y="0px" viewBox="0 0 45 45" style="enable-background:new 0 0 45 45;" xml:space="preserve">
<style type="text/css">
	.st0{opacity:0;}
	.st1{fill:#444444;}
	.st2{fill:none;}
	.st3{fill:none;stroke:#B9B9B9;}
</style>
<g id="Placement_Area" class="st0">
	<rect x="7.9" y="10" class="st1" width="29.2" height="30"/>
	<rect x="8.3" y="10.4" class="st2" width="28.3" height="29.2"/>
</g>
<g id="Icon">
	<g id="Canvas" class="st0">
		<rect x="7.9" y="10" class="st1" width="29.2" height="30"/>
		<rect x="8.3" y="10.4" class="st3" width="28.3" height="29.2"/>
	</g>
	<path id="패스_517" class="st1" d="M17.6,39.2v-10c0-0.1,0-0.2,0-0.3l-4.3,1.4l4.3-8.3v-8.7h6.5v7.9l1.6-1.8v-6h0.8
		c0.5,0,0.8-0.4,0.8-0.8v-1.7c0-0.5-0.4-0.8-0.8-0.8H15.2c-0.5,0-0.8,0.4-0.8,0.8v1.7c0,0.5,0.4,0.8,0.8,0.8H16v8.3L8.7,36.5
		c-0.3,0.8-0.3,1.7,0.2,2.4c0.4,0.7,1.2,1.1,2,1.1h6.9C17.7,39.7,17.6,39.5,17.6,39.2z"/>
	<path id="패스_518" class="st1" d="M32,25.3L27.4,20l-4.6,5.3c-0.2,0.2-0.3,0.6-0.1,0.9c0.1,0.3,0.4,0.5,0.7,0.5h2.4v6.3
		c0,0.2,0.2,0.4,0.4,0.4h2.4c0.2,0,0.4-0.2,0.4-0.4v-6.2h2.4c0.3,0,0.6-0.2,0.7-0.5C32.3,25.9,32.2,25.5,32,25.3z"/>
	<path id="패스_519" class="st1" d="M32.2,28.3v8.3h-9.7v-8.3h-2.4c-0.5,0-0.8,0.4-0.8,0.8v10c0,0.5,0.4,0.8,0.8,0.8h14.6
		c0.5,0,0.8-0.4,0.8-0.8v-10c0-0.5-0.4-0.8-0.8-0.8H32.2z"/>
</g>
</svg>
