<?xml version="1.0" encoding="utf-8"?>
<!-- Generator: Adobe Illustrator 25.2.3, SVG Export Plug-In . SVG Version: 6.00 Build 0)  -->
<svg version="1.1" id="Layer_1" xmlns="http://www.w3.org/2000/svg" xmlns:xlink="http://www.w3.org/1999/xlink" x="0px" y="0px"
	 viewBox="0 0 40 40" style="enable-background:new 0 0 40 40;" xml:space="preserve">
<style type="text/css">
	.st0{fill:#444444;}
</style>
<g id="그룹_40494" transform="translate(-1.563 -1)">
	<path id="선_628" class="st0" d="M32.1,14H11c-0.7,0-1.2-0.6-1.2-1.2s0.6-1.2,1.2-1.2h21.1c0.7,0,1.2,0.6,1.2,1.2S32.8,14,32.1,14
		z"/>
	<path id="선_629" class="st0" d="M32.1,22.2H11c-0.7,0-1.2-0.6-1.2-1.2c0-0.7,0.6-1.2,1.2-1.2h21.1c0.7,0,1.2,0.6,1.2,1.2
		C33.3,21.7,32.8,22.2,32.1,22.2z"/>
	<path id="선_630" class="st0" d="M32.1,30.5H11c-0.7,0-1.2-0.6-1.2-1.2c0-0.7,0.6-1.2,1.2-1.2h21.1c0.7,0,1.2,0.6,1.2,1.2
		C33.3,29.9,32.8,30.5,32.1,30.5z"/>
</g>
</svg>
