<?xml version="1.0" encoding="utf-8"?>
<!-- Generator: Adobe Illustrator 25.2.3, SVG Export Plug-In . SVG Version: 6.00 Build 0)  -->
<svg version="1.1" id="벡터_고급_개체" xmlns="http://www.w3.org/2000/svg" xmlns:xlink="http://www.w3.org/1999/xlink"
	 x="0px" y="0px" viewBox="0 0 40 40" style="enable-background:new 0 0 40 40;" xml:space="preserve">
<g id="그룹_38558">
	<path id="패스_45104" d="M36,33.5l-6.9-7.3c4.8-7.5,3-16-3.6-20.3s-15.3-2.5-19.6,4S3.1,25.1,9.7,29.3c5.5,3.6,11.8,3.3,17-0.4
		l6.9,7.2c0.7,0.7,1.8,0.6,2.5,0C36.7,35.3,36.7,34.2,36,33.5 M6.4,17.8c0-6.3,5.1-11.4,11.4-11.4s11.4,5.1,11.4,11.4
		S24,29.1,17.7,29.1S6.4,24,6.4,17.8z"/>
</g>
</svg>
