<?xml version="1.0" encoding="utf-8"?>
<!-- Generator: Adobe Illustrator 25.2.3, SVG Export Plug-In . SVG Version: 6.00 Build 0)  -->
<svg version="1.1" id="Layer_1" xmlns="http://www.w3.org/2000/svg" xmlns:xlink="http://www.w3.org/1999/xlink" x="0px" y="0px"
	 viewBox="0 0 40 40" style="enable-background:new 0 0 40 40;" xml:space="preserve">
<style type="text/css">
	.st0{display:none;}
	.st1{display:inline;}
	.st2{fill:#B5B5B5;}
	.st3{fill:#FFFFFF;}
	.st4{fill:none;stroke:#444444;stroke-width:2;stroke-linecap:round;}
	.st5{fill:#FFFFFF;stroke:#444444;stroke-width:2;stroke-linecap:round;}
	.st6{fill:none;}
	.st7{fill:#444444;}
</style>
<g id="레이어_2" class="st0">
	<g class="st1">
		<rect x="-8" class="st2" width="56" height="56"/>
		<g id="그룹_3769" transform="translate(-281.25 -27.697)">
			<g id="타원_162" transform="translate(288 27.697)">
				<circle class="st3" cx="13.2" cy="21.9" r="5.9"/>
				<circle class="st4" cx="13.2" cy="21.9" r="5.1"/>
			</g>
			<path id="패스_16586" class="st5" d="M313,67.7c0-6.5-5.2-11.7-11.7-11.7s-11.7,5.2-11.7,11.7"/>
		</g>
	</g>
</g>
<g id="레이어_1">
	<g id="패스_520" transform="translate(-2.8 -0.838)">
		<g>
			<path class="st6" d="M21.1,52.2c0.9-0.9,2.4-0.9,3.3,0l0,0l9.7,7.6c0.9,0.9,0.9,2.4,0,3.3c-0.4,0.4-1,0.7-1.7,0.7h-1V73h-7.6
				v-6.8h-2V73h-7.3v-9.2h-1.3c-1.3,0-2.3-1-2.3-2.3c0-0.6,0.2-1.2,0.7-1.7L21.1,52.2z"/>
		</g>
		<path class="st7" d="M22.8,52.8c-0.3,0-0.5,0.1-0.7,0.3l-9.7,7.6c-0.4,0.4-0.3,0.9-0.2,1.1s0.3,0.6,0.9,0.6h2.7v9.2h4.6v-6.8h4.7
			v6.8H30v-9.2h2.4c0.6,0,0.8-0.4,0.9-0.6c0.1-0.2,0.2-0.7-0.2-1.1l-9.7-7.6C23.3,53,23.1,52.8,22.8,52.8 M22.8,51.5
			c0.6,0,1.2,0.2,1.7,0.7l9.7,7.6c1.5,1.5,0.4,4-1.7,4h-1V73h-7.6v-6.8h-2V73h-7.3v-9.2h-1.3c-2.1,0-3.1-2.5-1.7-4l9.7-7.6
			C21.6,51.7,22.2,51.5,22.8,51.5z"/>
	</g>
</g>
<g>
	<rect x="21" y="-13.8" class="st6" width="0.1" height="6.8"/>
	<path class="st6" d="M22.3-15.2v6.8h4.9v-9.2h2.4c0.6,0,0.8-0.4,0.9-0.6c0.1-0.2,0.2-0.7-0.2-1.1l-9.7-7.6
		c-0.1-0.1-0.3-0.3-0.6-0.3v12H22.3z"/>
	<path class="st7" d="M31.4-20.2l-9.7-7.6c-0.5-0.5-1.1-0.7-1.7-0.7v0c0.6,0,1.1,0.2,1.6,0.7l9.7,7.6c0.9,0.9,0.9,2.4,0,3.3
		c-0.4,0.4-1,0.7-1.7,0.7h0.1C31.8-16.2,32.9-18.7,31.4-20.2z"/>
	<rect x="28.6" y="-16.2" class="st7" width="0.1" height="9.2"/>
	<path class="st7" d="M31.3-20.2l-9.7-7.6c-0.4-0.4-1-0.6-1.6-0.7v1.3c0.3,0,0.5,0.2,0.6,0.3l9.7,7.6c0.4,0.4,0.3,0.9,0.2,1.1
		c-0.1,0.2-0.3,0.6-0.9,0.6h-2.4v9.2h-4.9v-6.8H20v1.4h1h0.1V-7h7.5v-9.2h0.1h0.9c0.7,0,1.3-0.3,1.7-0.7
		C32.2-17.8,32.2-19.3,31.3-20.2z"/>
	<path class="st7" d="M8.8-20.2l9.7-7.6c0.4-0.4,1-0.6,1.6-0.7v1.3c-0.3,0-0.5,0.2-0.6,0.3l-9.7,7.6c-0.4,0.4-0.3,0.9-0.2,1.1
		c0.1,0.2,0.3,0.6,0.9,0.6h2.4v9.2h4.9v-6.8H20v1.4h-1H19V-7h-7.5v-9.2h-0.1h-0.9c-0.7,0-1.3-0.3-1.7-0.7
		C7.9-17.8,7.9-19.3,8.8-20.2z"/>
</g>
<g>
	<rect x="21.1" y="23.9" class="st6" width="0.1" height="7.7"/>
	<path class="st6" d="M22.6,22.3V30h5.5V19.6h2.7c0.7,0,0.9-0.5,1-0.7c0.1-0.2,0.2-0.8-0.2-1.2L20.7,9.2c-0.1-0.1-0.3-0.3-0.6-0.3
		v13.5H22.6z"/>
	<path class="st7" d="M32.7,16.7L21.8,8.1c-0.5-0.5-1.1-0.7-1.8-0.8v1.4c0.3,0,0.5,0.2,0.6,0.3l10.9,8.6c0.5,0.5,0.3,1,0.2,1.2
		c-0.1,0.2-0.3,0.7-1,0.7h-2.7V30h-5.5v-7.7H20v1.6h1.1h0.1v7.7h8.4V21.2h0.1h1c0.8,0,1.5-0.3,1.9-0.8
		C33.7,19.4,33.7,17.7,32.7,16.7z"/>
	<path class="st7" d="M7.4,16.7l10.9-8.6c0.5-0.5,1.1-0.7,1.8-0.8v1.4c-0.3,0-0.5,0.2-0.6,0.3L8.5,17.7c-0.5,0.5-0.3,1-0.2,1.2
		c0.1,0.2,0.3,0.7,1,0.7H12V30h5.5v-7.7H20v1.6h-1.1h-0.1v7.7h-8.4V21.2h-0.1h-1c-0.8,0-1.5-0.3-1.9-0.8C6.3,19.4,6.3,17.7,7.4,16.7
		z"/>
</g>
</svg>
