<svg xmlns="http://www.w3.org/2000/svg" width="34.242" height="30.2" viewBox="0 0 34.242 30.2">
  <g id="add_task_FILL0_wght200_GRAD0_opsz40" transform="translate(-4.9 -4.9)" fill="#4b4b4b" stroke-linecap="round" stroke-linejoin="round">
    <path d="M 20.00000190734863 35.04999923706055 C 17.91960144042969 35.04999923706055 15.94342136383057 34.65600967407227 14.12634181976318 33.87897109985352 C 12.30964183807373 33.1027717590332 10.69916152954102 32.01987075805664 9.339641571044922 30.66036033630371 C 7.980141639709473 29.30084991455078 6.897241592407227 27.69037055969238 6.121021747589111 25.87364959716797 C 5.343991756439209 24.05657005310059 4.95000171661377 22.08039093017578 4.95000171661377 20 C 4.95000171661377 17.91959953308105 5.343991756439209 15.94342041015625 6.121031761169434 14.12633991241455 C 6.897241592407227 12.30961990356445 7.980151653289795 10.69913005828857 9.339641571044922 9.339639663696289 C 10.69916152954102 7.980130195617676 12.30964183807373 6.89723014831543 14.12636184692383 6.121019840240479 C 15.94342136383057 5.343989849090576 17.91960144042969 4.949999809265137 20.00000190734863 4.949999809265137 C 21.77546119689941 4.949999809265137 23.47753143310547 5.238319873809814 25.05892181396484 5.806950092315674 C 26.63986206054688 6.375420093536377 28.08824157714844 7.170000076293945 29.36382102966309 8.16862964630127 L 29.40561103820801 8.201339721679688 L 29.3704719543457 8.241109848022461 L 28.41247177124023 9.32511043548584 L 28.38075256347656 9.360989570617676 L 28.34354209899902 9.330860137939453 C 27.18685150146484 8.394269943237305 25.8952522277832 7.675069808959961 24.50463104248047 7.193240165710449 C 23.11379241943359 6.711339950561523 21.59822273254395 6.467000007629395 20.00000190734863 6.467000007629395 C 16.25340270996094 6.467000007629395 13.0269718170166 7.793739795684814 10.41036224365234 10.41036033630371 C 7.793741703033447 13.02696990966797 6.467001914978027 16.2534008026123 6.467001914978027 20 C 6.467001914978027 23.7465991973877 7.793741703033447 26.97303009033203 10.41036224365234 29.58963966369629 C 13.0269718170166 32.20626068115234 16.25340270996094 33.53300094604492 20.00000190734863 33.53300094604492 C 21.01958274841309 33.53300094604492 22.01118087768555 33.42842102050781 22.94724273681641 33.22217178344727 C 23.88390159606934 33.0152702331543 24.80562210083008 32.70087814331055 25.68677139282227 32.2877311706543 L 25.71854209899902 32.27283096313477 L 25.74336242675781 32.29764175415039 L 26.82736206054688 33.38164138793945 L 26.87698173522949 33.43127059936523 L 26.81387138366699 33.46195983886719 C 25.78746223449707 33.96118927001953 24.69063186645508 34.35469818115234 23.55383110046387 34.6315803527832 C 22.41596221923828 34.90922164916992 21.22027206420898 35.04999923706055 20.00000190734863 35.04999923706055 Z M 34.09200286865234 32.42499923706055 L 34.0420036315918 32.42499923706055 L 32.625 32.42499923706055 L 32.57500076293945 32.42499923706055 L 32.57500076293945 32.375 L 32.57500076293945 27.42499923706055 L 27.62500190734863 27.42499923706055 L 27.57500267028809 27.42499923706055 L 27.57500267028809 27.375 L 27.57500267028809 25.95800018310547 L 27.57500267028809 25.90800094604492 L 27.62500190734863 25.90800094604492 L 32.57500076293945 25.90800094604492 L 32.57500076293945 20.95800018310547 L 32.57500076293945 20.90800094604492 L 32.625 20.90800094604492 L 34.0420036315918 20.90800094604492 L 34.09200286865234 20.90800094604492 L 34.09200286865234 20.95800018310547 L 34.09200286865234 25.90800094604492 L 39.0420036315918 25.90800094604492 L 39.09200286865234 25.90800094604492 L 39.09200286865234 25.95800018310547 L 39.09200286865234 27.375 L 39.09200286865234 27.42499923706055 L 39.0420036315918 27.42499923706055 L 34.09200286865234 27.42499923706055 L 34.09200286865234 32.375 L 34.09200286865234 32.42499923706055 Z M 17.54196166992188 26.5286693572998 L 17.50665092468262 26.49336051940918 L 11.67265224456787 20.66036033630371 L 11.63729190826416 20.625 L 11.67264175415039 20.58963966369629 L 12.71464157104492 19.54763984680176 L 12.75015163421631 19.51213073730469 L 12.78551197052002 19.54780006408691 L 17.54215621948242 24.34613418579102 L 33.92264175415039 7.96465015411377 L 33.95800018310547 7.929289817810059 L 33.99336242675781 7.964640140533447 L 35.03536224365234 9.006640434265137 L 35.07075119018555 9.04203987121582 L 35.03531265258789 9.077400207519531 L 17.57731246948242 26.49340057373047 L 17.54196166992188 26.5286693572998 Z" stroke="none"/>
    <path d="M 20.00000190734863 35 C 21.22200202941895 35 22.40266227722168 34.86100006103516 23.54200172424316 34.58300018310547 C 24.68066215515137 34.30567169189453 25.76400184631348 33.91699981689453 26.79200172424316 33.41699981689453 L 25.7080020904541 32.33300018310547 C 24.81933212280273 32.74966812133789 23.90266227722168 33.06232833862305 22.9580020904541 33.27099990844727 C 22.01400184631348 33.47900009155273 21.02800178527832 33.58300018310547 20.00000190734863 33.58300018310547 C 16.22200202941895 33.58300018310547 13.013671875 32.263671875 10.37500190734863 29.625 C 7.736331939697266 26.98633003234863 6.417001724243164 23.77799987792969 6.417001724243164 20 C 6.417001724243164 16.22200012207031 7.736331939697266 13.01366996765137 10.37500190734863 10.375 C 13.013671875 7.736330032348633 16.22200202941895 6.416999816894531 20.00000190734863 6.416999816894531 C 21.61133193969727 6.416999816894531 23.11833190917969 6.659999847412109 24.5210018157959 7.145999908447266 C 25.92366218566895 7.631999969482422 27.20833206176758 8.347330093383789 28.37500190734863 9.291999816894531 L 29.3330020904541 8.208000183105469 C 28.05566215515137 7.208000183105469 26.62533187866211 6.423329830169678 25.04200172424316 5.854000091552734 C 23.45866203308105 5.284669876098633 21.77800178527832 5 20.00000190734863 5 C 17.91666221618652 5 15.96533203125 5.388999938964844 14.1460018157959 6.166999816894531 C 12.32666206359863 6.944330215454102 10.73633193969727 8.013669967651367 9.375001907348633 9.375 C 8.01366138458252 10.73633003234863 6.944331645965576 12.32666969299316 6.167001724243164 14.14599990844727 C 5.389001846313477 15.96533012390137 5.000001907348633 17.91666030883789 5.000001907348633 20 C 5.000001907348633 22.08333015441895 5.389001846313477 24.03466033935547 6.167001724243164 25.85400009155273 C 6.944331645965576 27.67333030700684 8.013671875 29.26366996765137 9.375001907348633 30.625 C 10.73633193969727 31.98633003234863 12.32666206359863 33.05567169189453 14.1460018157959 33.83300018310547 C 15.96533203125 34.61100006103516 17.91666221618652 35 20.00000190734863 35 M 34.0420036315918 32.375 L 34.0420036315918 27.375 L 39.0420036315918 27.375 L 39.0420036315918 25.95800018310547 L 34.0420036315918 25.95800018310547 L 34.0420036315918 20.95800018310547 L 32.625 20.95800018310547 L 32.625 25.95800018310547 L 27.62500190734863 25.95800018310547 L 27.62500190734863 27.375 L 32.625 27.375 L 32.625 32.375 L 34.0420036315918 32.375 M 17.54200172424316 26.45800018310547 L 35 9.041999816894531 L 33.95800018310547 8 L 17.54200172424316 24.41699981689453 L 12.75000190734863 19.58300018310547 L 11.7080020904541 20.625 L 17.54200172424316 26.45800018310547 M 20.00000190734863 35.09999847412109 C 17.91281127929688 35.09999847412109 15.93001174926758 34.70465087890625 14.10668182373047 33.92494964599609 C 12.28410148620605 33.1462287902832 10.66834163665771 32.05976104736328 9.304291725158691 30.69570922851562 C 7.94025182723999 29.3316707611084 6.853781700134277 27.71590042114258 6.075041770935059 25.89328956604004 C 5.295351982116699 24.06998062133789 4.900002002716064 22.08717918395996 4.900002002716064 20 C 4.900002002716064 17.91280937194824 5.295351982116699 15.93000984191895 6.075051784515381 14.10667991638184 C 6.853781700134277 12.28407955169678 7.940261840820312 10.66831016540527 9.304291725158691 9.304289817810059 C 10.66834163665771 7.940239906311035 12.28410148620605 6.853769779205322 14.10671138763428 6.075039863586426 C 15.93001174926758 5.295350074768066 17.91281127929688 4.900000095367432 20.00000190734863 4.900000095367432 C 21.78124237060547 4.900000095367432 23.4890022277832 5.189310073852539 25.07584190368652 5.759900093078613 C 26.66180229187012 6.330180168151855 28.1148624420166 7.127339839935303 29.3946418762207 8.129260063171387 C 29.41634178161621 8.146249771118164 29.4300708770752 8.171429634094238 29.43258094787598 8.198869705200195 C 29.43510246276855 8.226309776306152 29.42618179321289 8.253569602966309 29.40793228149414 8.27422046661377 L 28.44993209838867 9.358220100402832 C 28.41447448730469 9.398349761962891 28.35369491577148 9.403419494628906 28.31207275390625 9.369720458984375 C 27.15990257263184 8.436790466308594 25.87339210510254 7.720409870147705 24.48826217651367 7.240489959716797 C 23.10270118713379 6.760419845581055 21.59263229370117 6.517000198364258 20.00000190734863 6.517000198364258 C 16.26714134216309 6.517000198364258 13.05261135101318 7.838809967041016 10.44571208953857 10.44571018218994 C 7.838811874389648 13.05261039733887 6.517001628875732 16.26713943481445 6.517001628875732 20 C 6.517001628875732 23.73286056518555 7.838811874389648 26.94738960266113 10.44571208953857 29.55429077148438 C 13.05261135101318 32.16119003295898 16.26714134216309 33.48300170898438 20.00000190734863 33.48300170898438 C 21.01597213745117 33.48300170898438 22.00395202636719 33.37881851196289 22.93648147583008 33.17333984375 C 23.86952209472656 32.96723937988281 24.7877311706543 32.6540412902832 25.66555213928223 32.24245834350586 C 25.70367813110352 32.22457885742188 25.74893379211426 32.23251342773438 25.77871131896973 32.26229095458984 L 26.86271095275879 33.34629058837891 C 26.88558197021484 33.36915969848633 26.89597129821777 33.40166854858398 26.89062118530273 33.43355941772461 C 26.88526153564453 33.46545028686523 26.86482238769531 33.49277877807617 26.83574104309082 33.50693130493164 C 25.80613136291504 34.00770950317383 24.7059211730957 34.40243911743164 23.5656623840332 34.68016052246094 C 22.42394256591797 34.958740234375 21.22426223754883 35.09999847412109 20.00000190734863 35.09999847412109 Z M 34.0420036315918 32.47499847412109 L 32.625 32.47499847412109 C 32.56977081298828 32.47499847412109 32.52500152587891 32.43022918701172 32.52500152587891 32.375 L 32.52500152587891 27.47500038146973 L 27.62500190734863 27.47500038146973 C 27.56977272033691 27.47500038146973 27.52500152587891 27.43022918701172 27.52500152587891 27.375 L 27.52500152587891 25.95800018310547 C 27.52500152587891 25.90276908874512 27.56977272033691 25.85799980163574 27.62500190734863 25.85799980163574 L 32.52500152587891 25.85799980163574 L 32.52500152587891 20.95800018310547 C 32.52500152587891 20.90276908874512 32.56977081298828 20.85799980163574 32.625 20.85799980163574 L 34.0420036315918 20.85799980163574 C 34.09723281860352 20.85799980163574 34.14200210571289 20.90276908874512 34.14200210571289 20.95800018310547 L 34.14200210571289 25.85799980163574 L 39.0420036315918 25.85799980163574 C 39.09723281860352 25.85799980163574 39.14200210571289 25.90276908874512 39.14200210571289 25.95800018310547 L 39.14200210571289 27.375 C 39.14200210571289 27.43022918701172 39.09723281860352 27.47500038146973 39.0420036315918 27.47500038146973 L 34.14200210571289 27.47500038146973 L 34.14200210571289 32.375 C 34.14200210571289 32.43022918701172 34.09723281860352 32.47499847412109 34.0420036315918 32.47499847412109 Z M 17.54200744628906 26.55800247192383 C 17.51641464233398 26.55800247192383 17.4908275604248 26.54824256896973 17.4713020324707 26.52872085571289 L 11.63730144500732 20.69572067260742 C 11.6185417175293 20.67695999145508 11.60800170898438 20.65152931213379 11.60800170898438 20.625 C 11.60800170898438 20.59848022460938 11.61853218078613 20.57304000854492 11.63729190826416 20.55429077148438 L 12.67929172515869 19.51228904724121 C 12.69810104370117 19.49348068237305 12.72359848022461 19.48281288146973 12.75022220611572 19.48299980163574 C 12.77682209014893 19.48306083679199 12.80229187011719 19.49370956420898 12.82102203369141 19.51259994506836 L 17.54230880737305 24.2752685546875 L 33.88729095458984 7.929289817810059 C 33.92478942871094 7.891790390014648 33.99120712280273 7.891790390014648 34.02871322631836 7.929289817810059 L 35.07071304321289 8.97128963470459 C 35.08948135375977 8.990059852600098 35.10002136230469 9.015520095825195 35.10000228881836 9.042059898376465 C 35.09998321533203 9.068599700927734 35.08942031860352 9.094050407409668 35.07063293457031 9.112799644470215 L 17.61263275146484 26.52879905700684 C 17.59311294555664 26.54826927185059 17.56755638122559 26.55800247192383 17.54200744628906 26.55800247192383 Z" stroke="none" fill="#1b1b1b"/>
  </g>
</svg>
