<svg xmlns="http://www.w3.org/2000/svg" width="16" height="16" viewBox="0 0 16 16">
  <path id="패스_16503" data-name="패스 16503" d="M9,0a8,8,0,1,0,8,8A8,8,0,0,0,9,0Zm.024,14.438a1.345,1.345,0,0,1-.116-2.688q.058,0,.116,0a1.31,1.31,0,0,1,1.4,1.217q0,.059,0,.118a1.291,1.291,0,0,1-1.4,1.353Zm1.783-6.409-.1.1c-.394.415-.842.884-.842,1.175a1.386,1.386,0,0,0,.18.674l.072.139-.057.215a.309.309,0,0,1-.283.189H8.436a.434.434,0,0,1-.325-.117,2.056,2.056,0,0,1-.423-1.262A3.059,3.059,0,0,1,8.8,7.07c.1-.109.195-.21.288-.3.314-.326.507-.536.507-.758,0-.154,0-.622-.893-.622a2.959,2.959,0,0,0-1.58.459.3.3,0,0,1-.326-.01l-.119-.085L6.649,5.53V4.08a.44.44,0,0,1,.2-.41A4.138,4.138,0,0,1,9,3.12a2.55,2.55,0,0,1,2.75,2.636,3.065,3.065,0,0,1-.939,2.273Z" transform="translate(-1)"/>
</svg>
