<svg xmlns="http://www.w3.org/2000/svg" width="20.167" height="21.083" viewBox="0 0 20.167 21.083">
  <g id="레이어_1_사본" data-name="레이어 1 사본" transform="translate(-0.917 -0.958)">
    <path id="패스_45123" data-name="패스 45123" d="M11,22.042a9.325,9.325,0,0,1-3.908-.835,10.3,10.3,0,0,1-3.207-2.269A10.858,10.858,0,0,1,1.715,15.6a10.484,10.484,0,0,1-.8-4.1A10.682,10.682,0,0,1,3.886,4.048,10.465,10.465,0,0,1,7.079,1.793,9.291,9.291,0,0,1,11,.958a9.383,9.383,0,0,1,3.935.835,10.247,10.247,0,0,1,3.193,2.255,10.762,10.762,0,0,1,2.157,3.338,10.59,10.59,0,0,1,.8,4.114,10.515,10.515,0,0,1-.8,4.084,10.937,10.937,0,0,1-2.157,3.353,10.134,10.134,0,0,1-3.193,2.269A9.383,9.383,0,0,1,11,22.042Zm0-1a8.617,8.617,0,0,0,6.47-2.782A9.423,9.423,0,0,0,20.131,11.5,9.423,9.423,0,0,0,17.47,4.736,8.617,8.617,0,0,0,11,1.954,8.617,8.617,0,0,0,4.53,4.736,9.423,9.423,0,0,0,1.869,11.5,9.423,9.423,0,0,0,4.53,18.264,8.617,8.617,0,0,0,11,21.046Z"/>
    <path id="패스_45124" data-name="패스 45124" d="M11,15.558,14.881,11.5,11,7.442l-.7.736,2.658,2.779H6.815v1.085h6.142L10.3,14.822Z"/>
  </g>
</svg>
