<svg id="Icon" xmlns="http://www.w3.org/2000/svg" width="18" height="18" viewBox="0 0 18 18">
  <rect id="Canvas" width="18" height="18" fill="#717171" opacity="0"/>
  <path id="패스_810" data-name="패스 810" d="M5.8,15.089a3.95,3.95,0,0,1,3.945-3.944,3.787,3.787,0,0,1,.975.127l.45-.45c0-.016-.009-.031-.009-.05V9.661a.77.77,0,0,1,.2-.5A5.873,5.873,0,0,0,12.694,5.5c0-2.773-1.47-4.323-3.694-4.323S5.266,2.787,5.266,5.5a5.937,5.937,0,0,0,1.4,3.665.77.77,0,0,1,.2.5v1.107a.764.764,0,0,1-.667.771c-4.465.389-5.163,3.443-5.163,4.65,0,.134.015.66.026.792H6.3a3.893,3.893,0,0,1-.5-1.893Z" fill="#717171"/>
  <path id="패스_811" data-name="패스 811" d="M17.833,10.446,15.862,8.475a.458.458,0,0,0-.647,0l-4.2,4.2a2.714,2.714,0,0,0-1.274-.327,2.744,2.744,0,1,0,2.745,2.744,2.716,2.716,0,0,0-.32-1.26l2.05-2.05,1.141,1.141a.228.228,0,0,0,.323,0h0L16.7,11.9l-1.3-1.3.375-.375,1.3,1.3.753-.753a.229.229,0,0,0,0-.323ZM9.45,16.3a.915.915,0,1,1,.915-.915.915.915,0,0,1-.915.915Z" fill="#717171"/>
</svg>
