<?xml version="1.0" encoding="utf-8"?>
<!-- Generator: Adobe Illustrator 25.2.3, SVG Export Plug-In . SVG Version: 6.00 Build 0)  -->
<svg version="1.1" id="레이어_1" xmlns="http://www.w3.org/2000/svg" xmlns:xlink="http://www.w3.org/1999/xlink" x="0px"
	 y="0px" viewBox="0 0 40 40" style="enable-background:new 0 0 40 40;" xml:space="preserve">
<style type="text/css">
	.st0{display:none;fill:#B5B5B5;stroke:#000000;stroke-miterlimit:10;}
	.st1{display:none;fill:#FFFFFF;stroke:#000000;stroke-miterlimit:10;}
	.st2{fill:none;stroke:#000000;stroke-width:1.75;stroke-linecap:round;}
	.st3{fill:none;stroke:#000000;stroke-width:1.5;stroke-linejoin:round;stroke-miterlimit:10;}
</style>
<g>
	<g>
		<rect x="-9.3" y="-4.3" class="st0" width="58.5" height="58.5"/>
		<circle class="st1" cx="20" cy="18.8" r="5.8"/>
		<circle class="st2" cx="20" cy="13.4" r="5.7"/>
		<path id="패스_16586_1_" class="st2" d="M27.2,22c-2-1.1-4.5-1.8-7.2-1.8c-7.2,0-12.9,4.4-12.9,11.6"/>
	</g>
	<path class="st3" d="M36.1,27.3c0-0.2,0.1-0.4,0.1-0.6c0-0.2,0-0.3,0-0.5c0-0.2,0-0.3,0-0.5c0-0.2-0.1-0.4-0.1-0.5l1.6-1.2
		c0.2-0.2,0.3-0.5,0.2-0.8L37,21.9c-0.1-0.3-0.5-0.4-0.8-0.3l-1.4,0.6c-0.2,0.1-0.4,0.1-0.6-0.1c-0.2-0.2-0.4-0.3-0.6-0.4
		c-0.3-0.2-0.6-0.3-1-0.5l-0.3-1.9c0-0.3-0.3-0.5-0.6-0.5h-1.7c-0.3,0-0.5,0.2-0.6,0.5l-0.2,2c-0.3,0.1-0.7,0.3-1,0.4
		c-0.2,0.1-0.5,0.3-0.7,0.4c-0.2,0.1-0.4,0.2-0.6,0.1l-1.4-0.6c-0.3-0.1-0.6,0-0.8,0.3L24,23.4c-0.1,0.3-0.1,0.6,0.2,0.8l1.5,1.1
		c0,0.2-0.1,0.4-0.1,0.6c0,0.2,0,0.3,0,0.5s0,0.4,0,0.5c0,0.2,0,0.4,0.1,0.5l-1.5,1.1c-0.2,0.2-0.3,0.5-0.2,0.8l0.8,1.5
		c0.2,0.3,0.5,0.4,0.8,0.3l1.4-0.6c0.2-0.1,0.4-0.1,0.6,0.1c0.2,0.2,0.4,0.3,0.6,0.4c0.2,0.1,0.4,0.2,0.7,0.3
		c0.2,0.1,0.3,0.3,0.4,0.5l0.2,1.5c0,0.3,0.3,0.5,0.6,0.5h1.7c0.3,0,0.5-0.2,0.6-0.5l0.3-1.9c0.3-0.1,0.7-0.2,1-0.4
		c0.2-0.1,0.4-0.3,0.6-0.4c0.2-0.1,0.4-0.2,0.6-0.1l1.4,0.6c0.3,0.1,0.6,0,0.8-0.2l0.9-1.5c0.1-0.3,0.1-0.6-0.2-0.8L36.1,27.3z
		 M32.9,26.3c0,1.1-0.9,1.9-2,1.9c-0.5,0-1-0.2-1.4-0.6l0,0c-0.8-0.8-0.8-2,0-2.8c0.4-0.4,0.9-0.6,1.4-0.6l0,0
		C32,24.4,32.9,25.2,32.9,26.3L32.9,26.3z"/>
</g>
</svg>
