<svg xmlns="http://www.w3.org/2000/svg" width="15" height="12.005" viewBox="0 0 15 12.005">
  <g id="벡터_고급_개체" data-name="벡터 고급 개체" transform="translate(0.788 0.785)">
    <g id="벡터_고급_개체-2" data-name="벡터 고급 개체" transform="translate(0 0)">
      <path id="패스_45760" data-name="패스 45760" d="M13.016,18.524a.785.785,0,0,1-.553-1.342l4.692-4.66-4.692-4.66a.785.785,0,1,1,1.107-1.114l5.253,5.217a.785.785,0,0,1,0,1.114L13.569,18.3A.783.783,0,0,1,13.016,18.524Z" transform="translate(-4.844 -7.304)" fill="#070707"/>
      <path id="선_639" data-name="선 639" d="M13.424.788H0A.788.788,0,0,1-.788,0,.788.788,0,0,1,0-.788H13.424A.788.788,0,0,1,14.212,0,.788.788,0,0,1,13.424.788Z" transform="translate(0 5.217)" fill="#070707"/>
    </g>
  </g>
</svg>
