<svg id="구성_요소_70_10" data-name="구성 요소 70 – 10" xmlns="http://www.w3.org/2000/svg" width="20" height="18" viewBox="0 0 20 18">
  <g id="사각형_2215" data-name="사각형 2215" transform="translate(0 1)" fill="#fff" stroke="#000" stroke-width="1">
    <rect width="20" height="17" stroke="none"/>
    <rect x="0.5" y="0.5" width="19" height="16" fill="none"/>
  </g>
  <rect id="사각형_2216" data-name="사각형 2216" width="2" height="2" transform="translate(3 6)"/>
  <rect id="사각형_2216-2" data-name="사각형 2216" width="2" height="2" transform="translate(7 6)"/>
  <rect id="사각형_2216-3" data-name="사각형 2216" width="2" height="2" transform="translate(11 6)"/>
  <rect id="사각형_2216-4" data-name="사각형 2216" width="2" height="2" transform="translate(15 6)"/>
  <rect id="사각형_2216-5" data-name="사각형 2216" width="2" height="2" transform="translate(3 9)"/>
  <rect id="사각형_2216-6" data-name="사각형 2216" width="2" height="2" transform="translate(7 9)"/>
  <rect id="사각형_2216-7" data-name="사각형 2216" width="2" height="2" transform="translate(11 9)"/>
  <rect id="사각형_2216-8" data-name="사각형 2216" width="2" height="2" transform="translate(15 9)"/>
  <rect id="사각형_2216-9" data-name="사각형 2216" width="2" height="2" transform="translate(3 12)"/>
  <rect id="사각형_2216-10" data-name="사각형 2216" width="2" height="2" transform="translate(7 12)"/>
  <rect id="사각형_2216-11" data-name="사각형 2216" width="2" height="2" transform="translate(11 12)"/>
  <rect id="사각형_2216-12" data-name="사각형 2216" width="2" height="2" transform="translate(15 12)"/>
  <g id="사각형_2217" data-name="사각형 2217" transform="translate(3)" stroke="#000" stroke-width="1">
    <rect width="3" height="3" stroke="none"/>
    <rect x="0.5" y="0.5" width="2" height="2" fill="none"/>
  </g>
  <g id="사각형_2218" data-name="사각형 2218" transform="translate(14)" stroke="#000" stroke-width="1">
    <rect width="3" height="3" stroke="none"/>
    <rect x="0.5" y="0.5" width="2" height="2" fill="none"/>
  </g>
</svg>
