<?xml version="1.0" encoding="utf-8"?>
<!-- Generator: Adobe Illustrator 26.5.1, SVG Export Plug-In . SVG Version: 6.00 Build 0)  -->
<svg version="1.1" id="벡터_고급_개체" xmlns="http://www.w3.org/2000/svg" xmlns:xlink="http://www.w3.org/1999/xlink"
	 x="0px" y="0px" viewBox="0 0 20 20" style="enable-background:new 0 0 20 20;" xml:space="preserve">
<style type="text/css">
	.st0{clip-path:url(#SVGID_00000111173158547834320660000010567182333869845922_);}
</style>
<g id="그룹_21556">
	<g>
		<defs>
			<rect id="SVGID_1_" y="1" width="20" height="18"/>
		</defs>
		<clipPath id="SVGID_00000048500555474789299330000013697052304370813580_">
			<use xlink:href="#SVGID_1_"  style="overflow:visible;"/>
		</clipPath>
		<g id="그룹_21555" style="clip-path:url(#SVGID_00000048500555474789299330000013697052304370813580_);">
			<path id="패스_26618" d="M14.2,5.9V2.7H5.8v3.2H4V1h12v4.9H14.2z M1.7,7.6L1.7,7.6z M16.3,10.5c0.6,0,1.1-0.5,1.1-1.1
				c0-0.3-0.1-0.6-0.3-0.8c-0.4-0.4-1.1-0.5-1.6,0c0,0,0,0,0,0c-0.4,0.4-0.5,1.1,0,1.6c0,0,0,0,0,0C15.7,10.3,16,10.5,16.3,10.5
				 M14.2,13.2H5.8v4.1h8.5L14.2,13.2z M16,19H4v-4H0V8.7c0-0.7,0.3-1.4,0.8-2c0.5-0.5,1.2-0.8,2-0.8h14.4c1.5,0,2.8,1.2,2.8,2.8V15
				h-4V19z M18.3,13.3V8.8c0-0.3-0.1-0.6-0.3-0.8c-0.2-0.2-0.5-0.3-0.8-0.3H2.9C2.6,7.6,2.3,7.7,2.1,8C1.9,8.2,1.7,8.5,1.7,8.8v4.5
				H4v-1.8h12v1.8H18.3z"/>
		</g>
	</g>
</g>
</svg>
