<svg xmlns="http://www.w3.org/2000/svg" width="26.666" height="30" viewBox="0 0 26.666 30">
  <path id="assignment_FILL0_wght200_GRAD0_opsz40" d="M9.083,33.333A2.316,2.316,0,0,1,7.4,32.6a2.316,2.316,0,0,1-.729-1.687V9.083A2.316,2.316,0,0,1,7.4,7.4a2.316,2.316,0,0,1,1.687-.729h8.334a2.529,2.529,0,0,1,.458-2.292A2.533,2.533,0,0,1,20,3.333a2.574,2.574,0,0,1,2.167,1.042,2.439,2.439,0,0,1,.416,2.292h8.334A2.316,2.316,0,0,1,32.6,7.4a2.316,2.316,0,0,1,.729,1.687V30.917a2.493,2.493,0,0,1-2.416,2.416Zm0-1.416H30.917a1.078,1.078,0,0,0,1-1V9.083a1.078,1.078,0,0,0-1-1H9.083a1.078,1.078,0,0,0-1,1V30.917a1.078,1.078,0,0,0,1,1ZM12.5,27.125h9.917V25.708H12.5Zm0-6.417h15V19.292h-15Zm0-6.416h15V12.875h-15ZM20,7.333A1.349,1.349,0,0,0,21.333,6a1.216,1.216,0,0,0-.4-.917A1.318,1.318,0,0,0,20,4.708,1.281,1.281,0,0,0,18.708,6a1.318,1.318,0,0,0,.375.938A1.216,1.216,0,0,0,20,7.333ZM8.083,31.917v0Z" transform="translate(-6.667 -3.333)" fill="#4b4b4b"/>
</svg>
