<?xml version="1.0" encoding="utf-8"?>
<!-- Generator: Adobe Illustrator 25.2.3, SVG Export Plug-In . SVG Version: 6.00 Build 0)  -->
<svg version="1.1" id="Layer_1" xmlns="http://www.w3.org/2000/svg" xmlns:xlink="http://www.w3.org/1999/xlink" x="0px" y="0px"
	 viewBox="0 0 24 24" style="enable-background:new 0 0 24 24;" xml:space="preserve">
<style type="text/css">
	.st0{fill:none;stroke:#000000;stroke-linecap:round;stroke-linejoin:round;stroke-miterlimit:10;}
</style>
<path d="M5.1,1.5l2.4,3.6c0.6,1,0.6,1.8,0.1,2.3C7.1,8.1,6.5,8.9,6.5,9.5c0,1,6.5,7.5,7.5,7.5c0.5,0,1.4-0.6,2-1.1
	c0.6-0.5,1.4-0.5,2,0l3.2,2.5c0.5,0.4,0.7,1.1,0.5,1.7c-0.3,1-1,2.3-2.8,2.9c-3,1-9-3-12-6c-2.8-2.8-4.6-6.3-5-7c0,0-0.5-1-0.8-1.6
	C1,8.1,0.9,7.8,0.8,7.4c-0.4-1.6-1-5.2,2.4-6.5C3.9,0.6,4.7,0.8,5.1,1.5z"/>
<g>
	<path d="M17.5,12.4c-0.5,0-0.9-0.4-0.9-0.9c0-2.3-1.8-4.1-4.1-4.1c-0.5,0-0.9-0.4-0.9-0.9s0.4-0.9,0.9-0.9c3.3,0,5.9,2.6,5.9,5.9
		C18.4,12,18,12.4,17.5,12.4z"/>
</g>
<g>
	<path d="M23,11.9c-0.5,0-0.9-0.4-0.9-0.9c0-5-4.1-9.1-9.1-9.1c-0.5,0-0.9-0.4-0.9-0.9s0.4-0.9,0.9-0.9C19,0.1,23.9,5,23.9,11
		C23.9,11.5,23.5,11.9,23,11.9z"/>
</g>
<image style="overflow:visible;enable-background:new    ;" width="33" height="33" id="ico_call_1_" xlink:href="6922977E.png"  transform="matrix(0.7273 0 0 0.7273 -30.9364 8.402195e-02)">
</image>
<path class="st0" d="M-26.5,0.5l4,6c0,0-2,2-2,3S-18,17-17,17s3-2,3-2l5,4c0,0,0,3-3,4s-9-3-12-6s-6-9-6-9S-32.5,1.5-26.5,0.5z"/>
<path class="st0" d="M-18.5,6.5c2.8,0,5,2.2,5,5"/>
<path class="st0" d="M-18,1c5.5,0,10,4.5,10,10"/>
</svg>
