<svg xmlns="http://www.w3.org/2000/svg" width="14" height="17.001" viewBox="0 0 14 17.001">
  <g id="그룹_3035" data-name="그룹 3035" transform="translate(-2 -0.999)">
    <path id="패스_492" data-name="패스 492" d="M9,18a2.2,2.2,0,0,0,2-2H7a2.2,2.2,0,0,0,2,2Z" fill="#0af"/>
    <path id="패스_493" data-name="패스 493" d="M13.571,5.693c0-1.719-1.6-2.445-3.571-2.634V1.5A.54.54,0,0,0,9.428,1H8.571A.539.539,0,0,0,8,1.5V3.059c-1.969.188-3.571.915-3.571,2.634C4.429,13.4,2,13.056,2,14.077V15H16v-.923C16,13,13.571,13.4,13.571,5.693Z" fill="#0af"/>
  </g>
</svg>
