<?xml version="1.0" encoding="utf-8"?>
<!-- Generator: Adobe Illustrator 26.5.1, SVG Export Plug-In . SVG Version: 6.00 Build 0)  -->
<svg version="1.1" id="레이어_1" xmlns="http://www.w3.org/2000/svg" xmlns:xlink="http://www.w3.org/1999/xlink" x="0px"
	 y="0px" viewBox="0 0 65 65" style="enable-background:new 0 0 65 65;" xml:space="preserve">
<style type="text/css">
	.st0{display:none;fill:#FFFFFF;stroke:#000000;stroke-miterlimit:10;}
</style>
<path d="M36.6,42.5c0.7,0,1.3-0.3,1.9-0.7c0.6-0.6,0.8-1.1,0.8-1.8s-0.3-1.3-0.8-1.8c-0.6-0.6-1.1-0.7-1.9-0.7
	c-0.7,0-1.3,0.3-1.8,0.7c-0.6,0.6-0.7,1.1-0.7,1.8s0.3,1.3,0.7,1.8C35.3,42.2,35.9,42.5,36.6,42.5z M35.1,33.7h2.8
	c0.1-1.3,0.3-2.2,0.6-2.9c0.4-0.7,1.1-1.6,2.4-2.8c1.3-1.1,2.1-2.1,2.6-3.1c0.5-0.9,0.7-2,0.7-3.2c0-2.1-0.7-3.9-2.2-5.3
	s-3.4-2-5.7-2c-1.7,0-3.3,0.5-4.6,1.4c-1.3,0.9-2.3,2.1-3,3.8l2.6,1.2c0.6-1.2,1.3-2,2.1-2.7s1.8-0.9,2.9-0.9c1.5,0,2.8,0.5,3.7,1.3
	s1.4,2,1.4,3.4c0,1-0.3,1.9-0.7,2.6s-1.3,1.6-2.4,2.4c-1.4,1.2-2.3,2.2-2.8,3.2C35.4,30.8,35.1,32.1,35.1,33.7z M17.6,51.6
	c-1.1,0-2.1-0.4-2.9-1.2c-0.8-0.8-1.2-1.8-1.2-2.9V9.6c0-1.1,0.4-2,1.2-2.9c0.8-0.8,1.8-1.2,2.9-1.2h37.8c1.1,0,2,0.4,2.9,1.2
	c0.8,0.8,1.2,1.8,1.2,2.9v37.8c0,1.1-0.4,2.1-1.2,2.9c-0.8,0.8-1.8,1.2-2.9,1.2L17.6,51.6L17.6,51.6z M17.6,48.3h37.8
	c0.2,0,0.4-0.1,0.6-0.3c0.2-0.2,0.3-0.4,0.3-0.7V9.6c0-0.2-0.1-0.4-0.3-0.6c-0.2-0.2-0.4-0.3-0.6-0.3H17.6c-0.3,0-0.5,0.1-0.7,0.3
	s-0.3,0.4-0.3,0.6v37.8c0,0.3,0.1,0.5,0.3,0.7C17.1,48.2,17.3,48.3,17.6,48.3z M9.6,59.5c-1.1,0-2-0.4-2.9-1.2
	c-0.8-0.8-1.2-1.8-1.2-2.9V14.3h3.3v41.1c0,0.2,0.1,0.4,0.3,0.6c0.2,0.2,0.4,0.3,0.6,0.3h41.1v3.3H9.6z M16.7,8.8v39.6V8.8z"/>
<rect x="0.5" y="0.5" class="st0" width="64" height="64"/>
</svg>
