<svg id="그룹_38750" data-name="그룹 38750" xmlns="http://www.w3.org/2000/svg" width="15.537" height="10.834" viewBox="0 0 15.537 10.834">
  <path id="패스_45927" data-name="패스 45927" d="M168.729,29.464a2.351,2.351,0,0,0-2.351-2.35s-2.147-.2-5.213-.2-5.417.2-5.417.2a2.351,2.351,0,0,0-2.352,2.35s-.1,1.314-.1,2.893.1,2.831.1,2.831a2.352,2.352,0,0,0,2.352,2.351s3.009.2,5.264.2,5.366-.2,5.366-.2a2.352,2.352,0,0,0,2.351-2.351s.1-1.252.1-2.831S168.729,29.464,168.729,29.464Zm-8.944,5.213v-4.7l3.884,2.3Z" transform="translate(-153.294 -26.909)" fill="#fff"/>
</svg>
