<?xml version="1.0" encoding="utf-8"?>
<!-- Generator: Adobe Illustrator 26.5.1, SVG Export Plug-In . SVG Version: 6.00 Build 0)  -->
<svg version="1.1" id="레이어_1" xmlns="http://www.w3.org/2000/svg" xmlns:xlink="http://www.w3.org/1999/xlink" x="0px"
	 y="0px" viewBox="0 0 30 26" style="enable-background:new 0 0 30 26;" xml:space="preserve">
<style type="text/css">
	.st0{fill:#212121;}
</style>
<path class="st0" d="M5,5.2C5,4,6,3,7.2,3h13.5C22,3,23,4,23,5.2V12c-0.5-0.3-1-0.5-1.5-0.7V5.2c0-0.4-0.3-0.8-0.8-0.8H7.2
	c-0.4,0-0.8,0.3-0.8,0.8v13.5c0,0.4,0.3,0.8,0.8,0.8h6.1c0.2,0.5,0.4,1,0.7,1.5H7.2C6,21,5,20,5,18.8V5.2z M12.8,7.7
	c0.3,0.3,0.3,0.8,0,1.1l-2,2c-0.3,0.3-0.8,0.3-1.1,0l-1-1C8.4,9.5,8.4,9,8.7,8.7c0.3-0.3,0.8-0.3,1.1,0l0.5,0.5l1.5-1.5
	C12,7.4,12.5,7.4,12.8,7.7z M12.8,13.2c0.3,0.3,0.3,0.8,0,1.1l-2,2c-0.3,0.3-0.8,0.3-1.1,0l-1-1c-0.3-0.3-0.3-0.8,0-1.1
	c0.3-0.3,0.8-0.3,1.1,0l0.5,0.5l1.5-1.5C12,12.9,12.5,12.9,12.8,13.2z M19.5,12c3,0,5.5,2.5,5.5,5.5S22.5,23,19.5,23
	S14,20.5,14,17.5S16.5,12,19.5,12z M20,20.5l0-2.5h2.5c0.3,0,0.5-0.2,0.5-0.5c0-0.3-0.2-0.5-0.5-0.5H20l0-2.5c0-0.3-0.2-0.5-0.5-0.5
	S19,14.2,19,14.5l0,2.5h-2.5c-0.3,0-0.5,0.2-0.5,0.5c0,0.3,0.2,0.5,0.5,0.5H19l0,2.5c0,0.3,0.2,0.5,0.5,0.5C19.8,21,20,20.8,20,20.5
	z M15.2,8.5c-0.4,0-0.8,0.3-0.8,0.8s0.3,0.8,0.8,0.8h3.5c0.4,0,0.8-0.3,0.8-0.8s-0.3-0.8-0.8-0.8H15.2z"/>
</svg>
