<svg xmlns="http://www.w3.org/2000/svg" width="35.6" height="28.8" viewBox="0 0 35.6 28.8">
  <path id="history_edu_FILL0_wght200_GRAD0_opsz40" d="M9.7,33.3a1.367,1.367,0,0,1-1.4-1.4V28.8H13V20.9a9.7,9.7,0,0,1-3.4,0,5.772,5.772,0,0,1-2.9-1.5V16.9H4.3L-.3,12.2a9.156,9.156,0,0,1,3.2-1.8,11.56,11.56,0,0,1,3.7-.7,12.573,12.573,0,0,1,3.3.5A8.36,8.36,0,0,1,13,11.8v-6a1.324,1.324,0,0,1,1.3-1.3H34a1.324,1.324,0,0,1,1.3,1.3V30.2a2.9,2.9,0,0,1-1,2.3,3.008,3.008,0,0,1-2.2.8Zm4.7-4.5h16v1.3a1.656,1.656,0,0,0,.5,1.2,1.845,1.845,0,0,0,1.2.5,1.656,1.656,0,0,0,1.2-.5,1.845,1.845,0,0,0,.5-1.2V6.9a1,1,0,0,0-1-1H15.4a1,1,0,0,0-1,1V13l9.2,9.2v1h-1L17.4,18l-1,1.1a6.47,6.47,0,0,1-.9.8,8.794,8.794,0,0,1-1,.6v8.3ZM4.9,15.4H8.1v3.3a4.375,4.375,0,0,0,1.7.8,3.887,3.887,0,0,0,1.5.2,5.45,5.45,0,0,0,2.2-.5A8.06,8.06,0,0,0,15.3,18l1-1-3.1-3.1a9.451,9.451,0,0,0-3.1-2.1A7.19,7.19,0,0,0,6.6,11a6.9,6.9,0,0,0-2.5.4,8.754,8.754,0,0,0-2.2,1ZM29,30.2H9.7v1.7h20a1.794,1.794,0,0,1-.5-.7A3.553,3.553,0,0,1,29,30.2ZM9.7,31.9v0Z" transform="translate(0.3 -4.5)" fill="#4b4b4b"/>
</svg>
