<?xml version="1.0" encoding="utf-8"?>
<!-- Generator: Adobe Illustrator 26.5.1, SVG Export Plug-In . SVG Version: 6.00 Build 0)  -->
<svg version="1.1" id="레이어_1" xmlns="http://www.w3.org/2000/svg" xmlns:xlink="http://www.w3.org/1999/xlink" x="0px"
	 y="0px" viewBox="0 0 13.5 24" style="enable-background:new 0 0 13.5 24;" xml:space="preserve">
<style type="text/css">
	.st0{fill:#F85A47;}
</style>
<g id="g2197" transform="translate(-287.99336,0.8261165)">
	<g>
		<path id="path1803-1_00000022523395800719865300000015515175583580849560_" class="st0" d="M300.9,11.2l-12.3,11.4"/>
		<path class="st0" d="M288.6,23.2c-0.2,0-0.3-0.1-0.4-0.2c-0.2-0.2-0.2-0.6,0-0.8l12.3-11.4c0.2-0.2,0.6-0.2,0.8,0
			c0.2,0.2,0.2,0.6,0,0.8L289,23C288.9,23.1,288.7,23.2,288.6,23.2z"/>
	</g>
	<g>
		<path id="path1805-1_00000087393065610838305180000005052675748872578948_" class="st0" d="M300.9,11.2L288.6-0.2"/>
		<path class="st0" d="M300.9,11.8c-0.1,0-0.3-0.1-0.4-0.2L288.2,0.2c-0.2-0.2-0.3-0.6,0-0.8c0.2-0.2,0.6-0.3,0.8,0l12.3,11.4
			c0.2,0.2,0.3,0.6,0,0.8C301.3,11.7,301.1,11.8,300.9,11.8z"/>
	</g>
</g>
</svg>
