<?xml version="1.0" encoding="utf-8"?>
<!-- Generator: Adobe Illustrator 26.5.1, SVG Export Plug-In . SVG Version: 6.00 Build 0)  -->
<svg version="1.1" id="레이어_1" xmlns="http://www.w3.org/2000/svg" xmlns:xlink="http://www.w3.org/1999/xlink" x="0px"
	 y="0px" viewBox="0 0 64 64" style="enable-background:new 0 0 64 64;" xml:space="preserve">
<style type="text/css">
	.st0{display:none;}
</style>
<path d="M5.5,45.7L3,43.8l12.1-19.4l8.1,9.5l10.8-17.5l6.5,9.8c-0.5,0.1-1,0.2-1.5,0.4c-0.5,0.2-1,0.3-1.5,0.4L34.2,22l-10.4,17
	l-8.2-9.6L5.5,45.7z M58.8,59.6l-9.3-9.3c-0.9,0.6-1.9,1.1-2.9,1.5c-1,0.3-2.1,0.5-3.2,0.5c-2.9,0-5.3-1-7.3-3c-2-2-3-4.4-3-7.3
	c0-2.9,1-5.4,3-7.4c2-2,4.5-3,7.3-3c2.9,0,5.3,1,7.3,3s3,4.5,3,7.4c0,1.1-0.2,2.2-0.6,3.2c-0.4,1.1-0.9,2.1-1.5,3l9.4,9.3L58.8,59.6
	z M43.3,49.3c2,0,3.8-0.7,5.2-2.1s2.1-3.2,2.1-5.2s-0.7-3.8-2.1-5.2s-3.2-2.2-5.2-2.2s-3.8,0.7-5.2,2.1c-1.4,1.4-2.1,3.2-2.1,5.3
	c0,2,0.7,3.8,2.1,5.2C39.5,48.6,41.2,49.3,43.3,49.3z M48,26.7c-0.5-0.2-1.1-0.3-1.6-0.4c-0.5-0.1-1.1-0.1-1.6-0.2L58.5,4.4L61,6.3
	L48,26.7z"/>
<rect class="st0" width="64" height="64"/>
</svg>
