<?xml version="1.0" encoding="utf-8"?>
<!-- Generator: Adobe Illustrator 26.5.1, SVG Export Plug-In . SVG Version: 6.00 Build 0)  -->
<svg version="1.1" id="레이어_1" xmlns="http://www.w3.org/2000/svg" xmlns:xlink="http://www.w3.org/1999/xlink" x="0px"
	 y="0px" viewBox="0 0 40 80" style="enable-background:new 0 0 40 80;" xml:space="preserve">
<style type="text/css">
	.st0{display:none;fill:#FDEF00;}
	.st1{fill:#FDEF00;}
	.st2{fill:#040000;}
	.st3{fill:#323333;}
	.st4{fill:#3B1C1C;}
</style>
<path class="st0" d="M30,59c0,3.9-4.5,7-10,7s-10-3.1-10-7c0-3.9,4.5-7,10-7S30,55.1,30,59z"/>
<rect x="0" y="40" class="st1" width="40" height="40"/>
<g>
	<g>
		<polygon class="st2" points="16.8,19.7 17.5,19.7 17.2,18.9 		"/>
		<path class="st3" d="M19.7,10.2c-6,0-10.9,3.9-10.9,8.6c0,2.8,1.7,5.3,4.4,6.9c0.6,0.3,0.1,1.2,0.1,1.2l-2.2,2.9
			c0,0.1,0,0.2,0.1,0.3c0.1,0.1,0.1,0.1,0.2,0.1c0.1,0,0.1,0,0.2-0.1c0,0,1.3-0.3,3.2-1.2c1.5-0.7,3-1.6,3-1.6
			c0.6,0.1,1.3,0.1,2,0.1c6,0,10.9-3.9,10.9-8.6C30.6,14.1,25.7,10.2,19.7,10.2z M14.2,21.3L14.2,21.3
			C14.2,21.4,14.2,21.4,14.2,21.3c0,0.5-0.3,0.8-0.8,0.8c-0.4,0-0.8-0.3-0.8-0.8c0,0,0,0,0,0h0v-3.6h-1v0c-0.4,0-0.7-0.3-0.7-0.7
			c0-0.4,0.3-0.7,0.7-0.7v0H15c0.4,0,0.7,0.3,0.7,0.7c0,0.4-0.3,0.7-0.7,0.7h-0.9V21.3z M27.7,22.1c-0.3,0-0.5-0.1-0.6-0.3l0,0
			L25.7,20l-0.3,0.3v1.1c0,0.4-0.3,0.8-0.8,0.8c-0.3,0-0.6-0.2-0.7-0.5c-0.1,0.3-0.3,0.5-0.6,0.5v0h-2.9v0c-0.3,0-0.5-0.2-0.6-0.5
			c0,0,0,0.1,0,0.1c-0.1,0.2-0.4,0.4-0.7,0.4h0c0,0-0.1,0-0.1,0c0,0,0,0,0,0c0,0-0.1,0-0.1,0c0,0,0,0,0,0c0,0-0.1,0-0.1,0
			c0,0,0,0,0,0c0,0-0.1,0-0.1-0.1c0,0,0,0,0,0c0,0-0.1-0.1-0.1-0.1c0,0,0,0,0,0c-0.1-0.1-0.1-0.2-0.2-0.3L18.1,21h-1.9L16,21.6
			c-0.1,0.3-0.4,0.6-0.7,0.6c-0.4,0-0.8-0.3-0.8-0.8c0-0.1,0-0.2,0.1-0.3l0,0c0,0,0,0,0-0.1l1.9-4.1c0.1-0.4,0.4-0.6,0.8-0.6
			c0,0,0,0,0,0c0,0,0,0,0,0c0.4,0,0.7,0.3,0.8,0.6l1.8,4v-3.7h0c0,0,0-0.1,0-0.1c0-0.4,0.3-0.8,0.8-0.8c0.4,0,0.8,0.3,0.8,0.8
			c0,0,0,0.1,0,0.1h0v3.6h2c0.3,0,0.5,0.2,0.6,0.4v-4.1c0-0.4,0.3-0.8,0.8-0.8c0.4,0,0.8,0.3,0.8,0.8v1l1.5-1.5
			c0.1-0.2,0.3-0.3,0.6-0.3c0.4,0,0.8,0.3,0.8,0.8c0,0.2-0.1,0.4-0.2,0.5l0,0l0,0c0,0,0,0,0,0l-1.2,1.2l1.5,2l0,0
			c0.1,0.1,0.2,0.3,0.2,0.5C28.5,21.8,28.1,22.1,27.7,22.1z"/>
		<path class="st2" d="M19.9,21.3C19.9,21.3,19.9,21.3,19.9,21.3C19.9,21.2,19.9,21.2,19.9,21.3c0-0.1,0-0.1,0-0.1h0c0,0,0,0,0-0.1
			v0l0,0l0,0c0,0,0,0,0-0.1l0-0.1v0.2h0c0,0.1,0,0.2,0,0.2c0,0.1,0,0.2,0.1,0.3C19.9,21.6,19.9,21.5,19.9,21.3
			C19.9,21.4,19.9,21.3,19.9,21.3z"/>
		<path class="st2" d="M23.9,21.2v0.2c0,0.1,0,0.2,0,0.3c0,0,0-0.1,0-0.2C24,21.4,24,21.3,23.9,21.2z"/>
	</g>
</g>
<g>
	<g>
		<polygon class="st4" points="16.8,59.7 17.5,59.7 17.2,58.9 		"/>
		<path class="st4" d="M19.7,50.2c-6,0-10.9,3.9-10.9,8.6c0,2.8,1.7,5.3,4.4,6.9c0.6,0.3,0.1,1.2,0.1,1.2l-2.2,2.9
			c0,0.1,0,0.2,0.1,0.3c0.1,0.1,0.1,0.1,0.2,0.1c0.1,0,0.1,0,0.2-0.1c0,0,1.3-0.3,3.2-1.2c1.5-0.7,3-1.6,3-1.6
			c0.6,0.1,1.3,0.1,2,0.1c6,0,10.9-3.9,10.9-8.6C30.6,54.1,25.7,50.2,19.7,50.2z M14.2,61.3L14.2,61.3
			C14.2,61.4,14.2,61.4,14.2,61.3c0,0.5-0.3,0.8-0.8,0.8c-0.4,0-0.8-0.3-0.8-0.8c0,0,0,0,0,0h0v-3.6h-1v0c-0.4,0-0.7-0.3-0.7-0.7
			c0-0.4,0.3-0.7,0.7-0.7v0H15c0.4,0,0.7,0.3,0.7,0.7s-0.3,0.7-0.7,0.7h-0.9V61.3z M27.7,62.1c-0.3,0-0.5-0.1-0.6-0.3l0,0L25.7,60
			l-0.3,0.3v1.1c0,0.4-0.3,0.8-0.8,0.8c-0.3,0-0.6-0.2-0.7-0.5c-0.1,0.3-0.3,0.5-0.6,0.5v0h-2.9v0c-0.3,0-0.5-0.2-0.6-0.5
			c0,0,0,0.1,0,0.1c-0.1,0.2-0.4,0.4-0.7,0.4h0c0,0-0.1,0-0.1,0c0,0,0,0,0,0c0,0-0.1,0-0.1,0c0,0,0,0,0,0c0,0-0.1,0-0.1,0
			c0,0,0,0,0,0c0,0-0.1,0-0.1-0.1c0,0,0,0,0,0c0,0-0.1-0.1-0.1-0.1c0,0,0,0,0,0c-0.1-0.1-0.1-0.2-0.2-0.3L18.1,61h-1.9L16,61.6
			c-0.1,0.3-0.4,0.6-0.7,0.6c-0.4,0-0.8-0.3-0.8-0.8c0-0.1,0-0.2,0.1-0.3l0,0c0,0,0,0,0-0.1l1.9-4.1c0.1-0.4,0.4-0.6,0.8-0.6
			c0,0,0,0,0,0c0,0,0,0,0,0c0.4,0,0.7,0.3,0.8,0.6l1.8,4v-3.7h0c0,0,0-0.1,0-0.1c0-0.4,0.3-0.8,0.8-0.8c0.4,0,0.8,0.3,0.8,0.8
			c0,0,0,0.1,0,0.1h0v3.6h2c0.3,0,0.5,0.2,0.6,0.4v-4.1c0-0.4,0.3-0.8,0.8-0.8c0.4,0,0.8,0.3,0.8,0.8v1l1.5-1.5
			c0.1-0.2,0.3-0.3,0.6-0.3c0.4,0,0.8,0.3,0.8,0.8c0,0.2-0.1,0.4-0.2,0.5l0,0l0,0c0,0,0,0,0,0l-1.2,1.2l1.5,2l0,0
			c0.1,0.1,0.2,0.3,0.2,0.5C28.5,61.8,28.1,62.1,27.7,62.1z"/>
		<path class="st4" d="M19.9,61.3C19.9,61.3,19.9,61.3,19.9,61.3C19.9,61.2,19.9,61.2,19.9,61.3c0-0.1,0-0.1,0-0.1h0c0,0,0,0,0-0.1
			v0l0,0l0,0c0,0,0,0,0-0.1l0-0.1v0.2h0c0,0.1,0,0.2,0,0.2c0,0.1,0,0.2,0.1,0.3C19.9,61.6,19.9,61.5,19.9,61.3
			C19.9,61.4,19.9,61.3,19.9,61.3z"/>
		<path class="st4" d="M23.9,61.2v0.2c0,0.1,0,0.2,0,0.3c0,0,0-0.1,0-0.2C24,61.4,24,61.3,23.9,61.2z"/>
	</g>
</g>
</svg>
