<svg xmlns="http://www.w3.org/2000/svg" xmlns:xlink="http://www.w3.org/1999/xlink" width="24" height="22" viewBox="0 0 24 22">
  <defs>
    <clipPath id="clip-path">
      <path id="합치기_28" data-name="합치기 28" d="M1436,1377.994c0-6.194,7.569-9.067,11.736-5.318.09.081.177.166.264.251.085-.085.173-.169.264-.248,4.166-3.753,11.732-.879,11.736,5.315,0,3.941-3.056,9.228-12,15.007C1439.056,1387.221,1436,1381.935,1436,1377.994Z" fill="none"/>
    </clipPath>
  </defs>
  <g id="like" transform="translate(-1436 -1371)">
    <g id="on_like">
      <g id="on_like-2" data-name="on_like">
        <g id="on_like-3" data-name="on_like" transform="translate(1434.909 1370)">
          <g id="레이어_1" data-name="레이어 1">
            <path id="패스_26772" data-name="패스 26772" d="M13.091,5.03,12.015,3.95C9.491,1.412,4.862,2.288,3.191,5.478c-.784,1.5-.961,3.666.47,6.431,1.381,2.662,4.252,5.851,9.43,9.324,5.178-3.473,8.047-6.662,9.429-9.324,1.433-2.766,1.257-4.931.471-6.431-1.671-3.19-6.3-4.067-8.825-1.53Zm0,17.97C-9.91,8.14,6.01-3.459,12.827,2.676c.09.081.178.165.264.251q.127-.129.264-.249C20.171-3.462,36.091,8.138,13.091,23Z"/>
          </g>
          <g id="레이어_1_사본" data-name="레이어 1 사본">
            <path id="패스_26773" data-name="패스 26773" d="M13.091,23C-9.91,8.14,6.01-3.459,12.827,2.676c.09.081.178.165.264.251q.127-.129.264-.249C20.171-3.462,36.091,8.138,13.091,23Z" fill="#ff784f"/>
          </g>
        </g>
        <path id="Color_Overlay" data-name="Color Overlay" d="M1436,1377.994c0-6.194,7.569-9.067,11.736-5.318.09.081.177.166.264.251.085-.085.173-.169.264-.248,4.166-3.753,11.732-.879,11.736,5.315,0,3.941-3.056,9.228-12,15.007C1439.056,1387.221,1436,1381.935,1436,1377.994Z" fill="#f85a47"/>
      </g>
      <g id="Clip" clip-path="url(#clip-path)">
        <g id="벡터_고급_개체" data-name="벡터 고급 개체" transform="translate(1434.909 1370)">
          <path id="패스_26780" data-name="패스 26780" d="M13.091,5.03,12.015,3.95C9.491,1.412,4.862,2.288,3.191,5.478c-.784,1.5-.961,3.666.47,6.431,1.381,2.662,4.252,5.851,9.43,9.324,5.178-3.473,8.047-6.662,9.429-9.324,1.433-2.766,1.257-4.931.471-6.431-1.671-3.19-6.3-4.067-8.825-1.53Zm0,17.97C-9.91,8.14,6.01-3.459,12.827,2.676c.09.081.178.165.264.251q.127-.129.264-.249C20.171-3.462,36.091,8.138,13.091,23Z"/>
        </g>
      </g>
    </g>
  </g>
</svg>
