<?xml version="1.0" encoding="utf-8"?>
<!-- Generator: Adobe Illustrator 26.5.1, SVG Export Plug-In . SVG Version: 6.00 Build 0)  -->
<svg version="1.1" id="레이어_1" xmlns="http://www.w3.org/2000/svg" xmlns:xlink="http://www.w3.org/1999/xlink" x="0px"
	 y="0px" viewBox="0 0 24 24" style="enable-background:new 0 0 24 24;" xml:space="preserve">
<style type="text/css">
	.st0{display:none;fill:#212121;}
	.st1{fill-rule:evenodd;clip-rule:evenodd;}
</style>
<path class="st0" d="M10.4,19.4c0-0.9,0.7-1.6,1.6-1.6c0.9,0,1.6,0.7,1.6,1.6c0,0.9-0.7,1.6-1.6,1.6C11.1,21,10.4,20.3,10.4,19.4z
	 M7.3,7.9C7.3,5.1,9.4,3,12,3c2.6,0,4.7,2.1,4.7,4.9c0,1.3-0.4,2.1-1.3,3.3L15,11.6l-0.7,0.7l-0.3,0.3l-0.2,0.3
	c-0.5,0.6-0.6,1-0.6,1.5c0,0.7-0.6,1.3-1.3,1.3c-0.7,0-1.3-0.6-1.3-1.3c0-1.3,0.4-2.2,1.4-3.3l0.3-0.4l0.7-0.7l0.3-0.3l0.2-0.3
	c0.4-0.6,0.6-0.9,0.6-1.4c0-1.4-1-2.4-2.2-2.4c-1.2,0-2.2,0.9-2.2,2.4c0,0.7-0.6,1.3-1.3,1.3C7.9,9.2,7.3,8.6,7.3,7.9z"/>
<path class="st1" d="M12,18c-0.6,0-1-0.4-1-1s0.4-1,1-1c0.6,0,1,0.4,1,1S12.6,18,12,18z M13,15h-2c0-1.7,0.6-3.4,2.1-4.1
	c0.8-0.4,0.9-0.6,0.9-1.4C14,8.6,13.3,8,12,8c-1.1,0-2,0.9-2,2H8c0-2.2,1.8-4,4-4c2.3,0,4,1.3,4,3.5c0,1.7-0.6,2.4-2.1,3.1
	C13.1,13.1,13,14.2,13,15z"/>
</svg>
