<svg xmlns="http://www.w3.org/2000/svg" width="19" height="17" viewBox="0 0 19 17">
  <g id="벡터_고급_개체" data-name="벡터 고급 개체" transform="translate(-2.5 -3.591)" opacity="0.851">
    <g id="레이어_1" data-name="레이어 1">
      <path id="패스_26933" data-name="패스 26933" d="M17.7,8.688,14.325,5.323,15.65,4.018a1.423,1.423,0,0,1,1.05-.427,1.508,1.508,0,0,1,1.075.427L19,5.248a1.609,1.609,0,0,1,.45,1.067,1.3,1.3,0,0,1-.425,1.043Zm-1.075,1.1-10.75,10.8H2.5V17.2L13.25,6.4Z" fill="#fff"/>
    </g>
    <g id="레이어_1_사본" data-name="레이어 1 사본">
      <path id="패스_26934" data-name="패스 26934" d="M9.3,20.591l3.025-3.013H21.5v3.013Zm8.4-11.9L14.325,5.323,15.65,4.018a1.423,1.423,0,0,1,1.05-.427,1.508,1.508,0,0,1,1.075.427L19,5.248a1.609,1.609,0,0,1,.45,1.067,1.3,1.3,0,0,1-.425,1.043Zm-1.075,1.1-10.75,10.8H2.5V17.2L13.25,6.4Z" fill="#fff"/>
    </g>
  </g>
</svg>
