<svg xmlns="http://www.w3.org/2000/svg" width="32" height="40" viewBox="0 0 32 40">
  <g id="레이어_1_사본" data-name="레이어 1 사본" transform="translate(-8 -4)">
    <path id="패스_26623" data-name="패스 26623" d="M8,38V35h4.2V19.7a12.137,12.137,0,0,1,2.475-7.425A10.594,10.594,0,0,1,21.2,8.1V6.65a2.456,2.456,0,0,1,.825-1.9,2.975,2.975,0,0,1,3.95,0,2.456,2.456,0,0,1,.825,1.9V8.1a10.356,10.356,0,0,1,2.525.875A9.737,9.737,0,0,1,31.55,10.45l-1.075,1.075L29.4,12.6a7.516,7.516,0,0,0-2.525-1.35A9.5,9.5,0,0,0,24,10.8a8.432,8.432,0,0,0-6.275,2.575A8.688,8.688,0,0,0,15.2,19.7V35H32.85V27.6h3V35H40v3Zm16,6a4.012,4.012,0,0,1-4-4h8a4.012,4.012,0,0,1-4,4Z"/>
  </g>
</svg>
