<?xml version="1.0" encoding="utf-8"?>
<!-- Generator: Adobe Illustrator 26.5.1, SVG Export Plug-In . SVG Version: 6.00 Build 0)  -->
<svg version="1.1" xmlns="http://www.w3.org/2000/svg" xmlns:xlink="http://www.w3.org/1999/xlink" x="0px" y="0px"
	 viewBox="0 0 30 28.5" style="enable-background:new 0 0 30 28.5;" xml:space="preserve">
<style type="text/css">
	.st0{display:none;}
	.st1{display:inline;}
	.st2{fill:none;stroke:#000000;stroke-width:1.5;stroke-linejoin:round;}
</style>
<g id="레이어_1" class="st0">
	<g id="rate_review_FILL0_wght200_GRAD0_opsz40" class="st1">
		<path d="M26.4,2.6C26.4,2.6,26.4,2.6,26.4,2.6c0.6,0,1.1,0.5,1.1,1.1v18c0,1.1-0.9,1.9-1.9,1.9H5.8l-3.3,3.4V3.6c0,0,0,0,0,0
			C2.5,3,3,2.6,3.6,2.6c0,0,0,0,0,0L26.4,2.6C26.4,2.6,26.4,2.6,26.4,2.6 M26.4,0.8C26.4,0.8,26.4,0.8,26.4,0.8l-22.8,0
			C2,0.8,0.8,2.1,0.8,3.6l0,23.3c0,0.7,0.4,1.3,1.1,1.6c0.2,0.1,0.4,0.1,0.7,0.1c0.5,0,0.9-0.2,1.2-0.5l2.8-2.9h19
			c2,0,3.7-1.6,3.7-3.7v-18c0-0.7-0.3-1.5-0.8-2C27.9,1.1,27.2,0.8,26.4,0.8C26.4,0.8,26.4,0.8,26.4,0.8L26.4,0.8z"/>
	</g>
</g>
<g id="레이어_2" class="st0">
	<polygon class="st1" points="13.3,18.8 24.1,18.8 24.1,17.4 14.8,17.4 	"/>
	<path class="st1" d="M5.9,18.8H8L17.9,9c0.1-0.1,0.2-0.3,0.2-0.4c0-0.2-0.1-0.4-0.2-0.5l-1.3-1.2c-0.1-0.1-0.3-0.2-0.4-0.2
		c-0.2,0-0.3,0.1-0.4,0.2l-9.8,10V18.8z"/>
</g>
<g id="레이어_3">
	<g id="_433-Speech_Bubble_Communication">
		<polyline class="st2" points="9.8,3 2,3 2,22 19.3,22 19.3,27.2 24.5,22 28,22 28,18.6 		"/>
		<circle class="st2" cx="21.2" cy="9" r="7.8"/>
		<polyline class="st2" points="17.7,9 20.3,11.6 25.5,6.4 		"/>
	</g>
</g>
</svg>
