<svg xmlns="http://www.w3.org/2000/svg" width="57.35" height="70.3" viewBox="0 0 57.35 70.3">
  <g id="_6405431_smartphone_verificatoin_mobile_phone_icon" data-name="6405431_smartphone_verificatoin_mobile_phone_icon" transform="translate(-9.3 3.1)">
    <g id="Layer_1">
      <path id="패스_83186" data-name="패스 83186" d="M50.8,67.2H13.2a3.842,3.842,0,0,1-3.9-3.9V.8a3.842,3.842,0,0,1,3.9-3.9H50.7A3.842,3.842,0,0,1,54.6.8V63.3A3.82,3.82,0,0,1,50.8,67.2Z" fill="#fff"/>
    </g>
    <g id="Layer_1_사본">
      <path id="패스_83187" data-name="패스 83187" d="M50.8,67.2H13.2a3.842,3.842,0,0,1-3.9-3.9V.8a3.842,3.842,0,0,1,3.9-3.9H50.7A3.842,3.842,0,0,1,54.6.8V63.3A3.82,3.82,0,0,1,50.8,67.2ZM13.2-1.6A2.263,2.263,0,0,0,10.9.7V63.2a2.263,2.263,0,0,0,2.3,2.3H50.7A2.263,2.263,0,0,0,53,63.2V.8a2.263,2.263,0,0,0-2.3-2.3H13.2Z" fill="#231f20"/>
      <path id="패스_83188" data-name="패스 83188" d="M38.2,1.5H25.8A.789.789,0,0,1,25,.7c0-.5.3-.7.8-.7H38.3a.713.713,0,0,1,.7.8C39,1.3,38.7,1.5,38.2,1.5Z" fill="#231f20"/>
      <path id="패스_83189" data-name="패스 83189" d="M35.1,64H28.9a.789.789,0,0,1-.8-.8.736.736,0,0,1,.8-.8h6.2a.789.789,0,0,1,.8.8A.736.736,0,0,1,35.1,64Z" fill="#231f20"/>
      <g id="그룹_162312" data-name="그룹 162312">
        <circle id="타원_9367" data-name="타원 9367" cx="11.7" cy="11.7" r="11.7" transform="translate(42.5 35.8)" fill="#fff" stroke="#000" stroke-miterlimit="10" stroke-width="1.5"/>
        <path id="패스_83190" data-name="패스 83190" d="M54.2,59.8A12.3,12.3,0,1,1,66.5,47.5,12.421,12.421,0,0,1,54.2,59.8Zm0-23.5A11.1,11.1,0,1,0,65.3,47.4,11.139,11.139,0,0,0,54.2,36.3Z" fill="#231f20"/>
        <path id="패스_83191" data-name="패스 83191" d="M51.8,52.7a.52.52,0,0,1-.4-.2l-4.7-4.7a.566.566,0,0,1,.8-.8l4.3,4.3,9-9a.566.566,0,0,1,.8.8l-9.4,9.4C52.1,52.7,52,52.7,51.8,52.7Z" fill="#231f20"/>
      </g>
    </g>
    <g id="레이어_4">
      <g id="그룹_162314" data-name="그룹 162314">
        <g id="password">
          <g id="그룹_162313" data-name="그룹 162313">
            <path id="패스_83192" data-name="패스 83192" d="M48.4,21.4h-4V18.6a1.155,1.155,0,0,0-1.2-1.2H40.4V13.8a8.4,8.4,0,0,0-16.8,0v3.6H20.8a1.155,1.155,0,0,0-1.2,1.2v2.8h-4a2.006,2.006,0,0,0-2,2v7.2a2.006,2.006,0,0,0,2,2h4v2.8a1.155,1.155,0,0,0,1.2,1.2H43.2a1.155,1.155,0,0,0,1.2-1.2V32.6h4a2.006,2.006,0,0,0,2-2V23.4A2.006,2.006,0,0,0,48.4,21.4Zm-24-7.6a7.6,7.6,0,1,1,15.2,0v3.6h-2V13.8a5.6,5.6,0,1,0-11.2,0v3.6h-2V13.8Zm12.4,3.6H27.2V13.8a4.8,4.8,0,1,1,9.6,0ZM20.4,18.6a.43.43,0,0,1,.4-.4H43.2a.43.43,0,0,1,.4.4v2.8H20.4ZM43.6,35.4a.43.43,0,0,1-.4.4H20.8a.43.43,0,0,1-.4-.4V32.6H43.6Zm6-4.8a1.155,1.155,0,0,1-1.2,1.2H15.6a1.155,1.155,0,0,1-1.2-1.2V23.4a1.155,1.155,0,0,1,1.2-1.2H48.4a1.155,1.155,0,0,1,1.2,1.2v7.2Z" stroke="#000" stroke-miterlimit="10" stroke-width="0.5"/>
          </g>
        </g>
        <line id="선_665" data-name="선 665" y2="2.2" transform="translate(32 24.6)" fill="none" stroke="#000" stroke-linecap="round" stroke-linejoin="round" stroke-miterlimit="10" stroke-width="1"/>
        <line id="선_666" data-name="선 666" x2="2.1" y2="0.7" transform="translate(29.9 26.1)" fill="none" stroke="#000" stroke-linecap="round" stroke-linejoin="round" stroke-miterlimit="10" stroke-width="1"/>
        <line id="선_667" data-name="선 667" y1="1.8" x2="1.3" transform="translate(30.7 26.8)" fill="none" stroke="#000" stroke-linecap="round" stroke-linejoin="round" stroke-miterlimit="10" stroke-width="1"/>
        <line id="선_668" data-name="선 668" x1="1.3" y1="1.8" transform="translate(32 26.8)" fill="none" stroke="#000" stroke-linecap="round" stroke-linejoin="round" stroke-miterlimit="10" stroke-width="1"/>
        <line id="선_669" data-name="선 669" x1="2.1" y2="0.7" transform="translate(32 26.1)" fill="none" stroke="#000" stroke-linecap="round" stroke-linejoin="round" stroke-miterlimit="10" stroke-width="1"/>
        <line id="선_670" data-name="선 670" y2="2.2" transform="translate(25.4 24.6)" fill="none" stroke="#000" stroke-linecap="round" stroke-linejoin="round" stroke-miterlimit="10" stroke-width="1"/>
        <line id="선_671" data-name="선 671" x2="2.1" y2="0.7" transform="translate(23.3 26.1)" fill="none" stroke="#000" stroke-linecap="round" stroke-linejoin="round" stroke-miterlimit="10" stroke-width="1"/>
        <line id="선_672" data-name="선 672" y1="1.8" x2="1.3" transform="translate(24.1 26.8)" fill="none" stroke="#000" stroke-linecap="round" stroke-linejoin="round" stroke-miterlimit="10" stroke-width="1"/>
        <line id="선_673" data-name="선 673" x1="1.3" y1="1.8" transform="translate(25.4 26.8)" fill="none" stroke="#000" stroke-linecap="round" stroke-linejoin="round" stroke-miterlimit="10" stroke-width="1"/>
        <line id="선_674" data-name="선 674" x1="2.1" y2="0.7" transform="translate(25.4 26.1)" fill="none" stroke="#000" stroke-linecap="round" stroke-linejoin="round" stroke-miterlimit="10" stroke-width="1"/>
        <line id="선_675" data-name="선 675" y2="2.2" transform="translate(38.6 24.6)" fill="none" stroke="#000" stroke-linecap="round" stroke-linejoin="round" stroke-miterlimit="10" stroke-width="1"/>
        <line id="선_676" data-name="선 676" x2="2.1" y2="0.7" transform="translate(36.5 26.1)" fill="none" stroke="#000" stroke-linecap="round" stroke-linejoin="round" stroke-miterlimit="10" stroke-width="1"/>
        <line id="선_677" data-name="선 677" y1="1.8" x2="1.3" transform="translate(37.3 26.8)" fill="none" stroke="#000" stroke-linecap="round" stroke-linejoin="round" stroke-miterlimit="10" stroke-width="1"/>
        <line id="선_678" data-name="선 678" x1="1.3" y1="1.8" transform="translate(38.6 26.8)" fill="none" stroke="#000" stroke-linecap="round" stroke-linejoin="round" stroke-miterlimit="10" stroke-width="1"/>
        <line id="선_679" data-name="선 679" x1="2.1" y2="0.7" transform="translate(38.6 26.1)" fill="none" stroke="#000" stroke-linecap="round" stroke-linejoin="round" stroke-miterlimit="10" stroke-width="1"/>
      </g>
    </g>
  </g>
</svg>
