<?xml version="1.0" encoding="utf-8"?>
<!-- Generator: Adobe Illustrator 25.2.3, SVG Export Plug-In . SVG Version: 6.00 Build 0)  -->
<svg version="1.1" id="Layer_1" xmlns="http://www.w3.org/2000/svg" xmlns:xlink="http://www.w3.org/1999/xlink" x="0px" y="0px"
	 viewBox="0 0 138.3 54" style="enable-background:new 0 0 138.3 54;" xml:space="preserve">
<style type="text/css">
	.st0{fill:#F27221;}
</style>
<path id="ntis_home" class="st0" d="M0,53h9.8V32.1c0-6-0.8-12.5-1.3-18.1h0.4l5.3,11.2l15,27.8h10.5V1H30v20.7
	c0,5.9,0.8,12.8,1.3,18.2h-0.3l-5.2-11.3L10.6,1H0V53z M57.6,53H68V9.6h14.8V1H43v8.6h14.6L57.6,53z M85.8,53h10.4V1H85.8L85.8,53z
	 M119.2,54c12,0,19.1-7.2,19.1-15.8c0-7.5-4.1-11.5-10.5-14.1l-6.8-2.9c-4.4-1.8-8.2-3.1-8.2-6.8c0-3.4,3-5.5,7.5-5.5
	c4.1,0,8,1.5,11,4.3l5.3-6.5C132.3,2.4,126.5,0,120.3,0c-10.5,0-18,6.5-18,15c0,7.6,5.3,11.8,10.5,14l7,3c4.6,2,7.8,3.2,7.8,7
	c0,3.7-2.9,6-8.3,6c-4.6,0-9.5-2.3-13.2-5.8l-6,7.2C105.3,51.3,112.1,54,119.2,54L119.2,54z"/>
</svg>
