<?xml version="1.0" encoding="utf-8"?>
<!-- Generator: Adobe Illustrator 25.2.3, SVG Export Plug-In . SVG Version: 6.00 Build 0)  -->
<svg version="1.1" id="Layer_1" xmlns="http://www.w3.org/2000/svg" xmlns:xlink="http://www.w3.org/1999/xlink" x="0px" y="0px"
	 viewBox="0 0 31.7 23" style="enable-background:new 0 0 31.7 23;" xml:space="preserve">
<style type="text/css">
	.st0{fill:#FFFFFF;}
</style>
<g>
	<rect x="13.2" y="11.5" class="st0" width="2.4" height="3.8"/>
	<rect x="4.2" y="7.7" class="st0" width="5.3" height="3.8"/>
	<path class="st0" d="M23.7,10.4c0.4,0,0.7-0.1,1-0.4c0.3-0.3,0.4-0.7,0.4-1.2c0-0.5-0.2-0.9-0.4-1.2c-0.2-0.2-0.6-0.4-1-0.4
		s-0.7,0.1-1,0.4c-0.3,0.3-0.5,0.7-0.5,1.2c0,0.5,0.2,0.9,0.5,1.2C22.9,10.3,23.3,10.4,23.7,10.4z"/>
	<path class="st0" d="M26.7,0H5C2.2,0,0,2.2,0,5v13c0,2.8,2.2,5,5,5h21.7c2.8,0,5-2.2,5-5V5C31.7,2.2,29.5,0,26.7,0z M27.9,6.3h1.2
		v5.3h-1.2V6.3z M22,6.8c0.4-0.4,1-0.6,1.7-0.6c0.7,0,1.2,0.2,1.7,0.6c0.5,0.5,0.9,1.2,0.9,2s-0.3,1.6-0.9,2c-0.4,0.4-1,0.6-1.7,0.6
		c-0.7,0-1.2-0.2-1.7-0.6c-0.5-0.4-0.9-1.2-0.9-2S21.4,7.3,22,6.8z M11.1,16.7H2.5v-1.1h3.8v-3H3V6.5h7.6v6.1H7.4v3h3.7V16.7z
		 M16.7,16.5H12v-10h1.2v3.8h2.4V6.5h1.2V16.5z M21.1,11.9h-1.5v5.3h-1.2V6.3h1.2v4.4h1.5V11.9z M29.2,17.3h-7.4v-3h6.1v-1h-6.1v-1
		h7.3v3H23v0.9h6.2V17.3z"/>
</g>
</svg>
