<?xml version="1.0" encoding="utf-8"?>
<!-- Generator: Adobe Illustrator 25.2.3, SVG Export Plug-In . SVG Version: 6.00 Build 0)  -->
<svg version="1.1" id="Layer_1" xmlns="http://www.w3.org/2000/svg" xmlns:xlink="http://www.w3.org/1999/xlink" x="0px" y="0px"
	 viewBox="0 0 31.7 23" style="enable-background:new 0 0 31.7 23;" xml:space="preserve">
<style type="text/css">
	.st0{fill:#FFFFFF;}
</style>
<g>
	<path class="st0" d="M19.4,4.4h-1.5l-0.8,1.6h-3.8l-0.8-1.6h-1.4c-0.4,0-0.8,0.3-0.8,0.8v13.5c0,0.4,0.3,0.8,0.8,0.8h8.2
		c0.4,0,0.8-0.3,0.8-0.8V5.2C20.2,4.7,19.8,4.4,19.4,4.4z"/>
	<path class="st0" d="M26.7,0H5C2.2,0,0,2.2,0,5v13c0,2.8,2.2,5,5,5h21.7c2.8,0,5-2.2,5-5V5C31.7,2.2,29.5,0,26.7,0z M22.1,18.6
		c0,1.5-1.2,2.8-2.8,2.8h-8.2c-1.5,0-2.8-1.2-2.8-2.8V5.2c0-1.5,1.2-2.8,2.8-2.8h8.2c1.5,0,2.8,1.2,2.8,2.8V18.6z"/>
</g>
</svg>
